<svg xmlns="http://www.w3.org/2000/svg" width="23.184" height="23.184" viewBox="0 0 23.184 23.184" data-v-9b403bea="" class=""><path id="facebook" d="M20.062,0H3.126A3.124,3.124,0,0,0,0,3.124V20.06a3.124,3.124,0,0,0,3.124,3.124h8.353l.014-8.285H9.341a.508.508,0,0,1-.508-.506l-.01-2.67a.508.508,0,0,1,.508-.51h2.148V8.633c0-2.994,1.829-4.625,4.5-4.625h2.192a.508.508,0,0,1,.508.508V6.767a.508.508,0,0,1-.508.508H16.826c-1.453,0-1.734.69-1.734,1.7v2.234h3.192a.508.508,0,0,1,.5.568l-.317,2.67a.508.508,0,0,1-.5.448H15.106l-.014,8.285h4.97a3.124,3.124,0,0,0,3.124-3.124V3.124A3.124,3.124,0,0,0,20.062,0Z" transform="translate(-0.002)" fill="#475993" data-v-9b403bea=""></path></svg>