<svg xmlns="http://www.w3.org/2000/svg" xmlns:xlink="http://www.w3.org/1999/xlink" width="500" zoomAndPan="magnify" viewBox="0 0 375 374.999991" height="500" preserveAspectRatio="xMidYMid meet" version="1.2"><defs><clipPath id="17c5610916"><path d="M 23.160156 177 L 172 177 L 172 327 L 23.160156 327 Z M 23.160156 177 "/></clipPath><clipPath id="07b9586b7c"><path d="M 200 19 L 351.660156 19 L 351.660156 255 L 200 255 Z M 200 19 "/></clipPath><clipPath id="1e32edaa4e"><path d="M 87 16.257812 L 315 16.257812 L 315 358.738281 L 87 358.738281 Z M 87 16.257812 "/></clipPath></defs><g id="b8a75dae34"><path style=" stroke:none;fill-rule:nonzero;fill:#3598db;fill-opacity:1;" d="M 115.707031 168.882812 L 106.3125 168.882812 L 137.34375 124.355469 L 145.476562 117.410156 C 147.214844 117.882812 149.03125 118.355469 150.847656 118.671875 C 153.929688 119.222656 156.769531 120.410156 159.375 122.222656 L 159.769531 122.539062 L 124.316406 173.222656 C 123.839844 172.59375 123.210938 171.960938 122.578125 171.40625 C 121.945312 170.855469 121.234375 170.382812 120.523438 170.066406 C 119.8125 169.671875 119.023438 169.433594 118.15625 169.199219 C 117.367188 168.960938 116.578125 168.882812 115.707031 168.882812 Z M 115.707031 168.882812 "/><path style=" stroke:none;fill-rule:nonzero;fill:#3598db;fill-opacity:1;" d="M 217.96875 317.0625 L 199.886719 342.957031 C 199.332031 343.75 198.703125 344.539062 198.148438 345.25 C 197.515625 345.957031 196.886719 346.667969 196.175781 347.378906 C 195.464844 348.011719 194.753906 348.722656 193.964844 349.273438 C 193.175781 349.90625 192.382812 350.457031 191.59375 350.933594 C 190.804688 351.484375 189.9375 351.957031 189.066406 352.355469 C 188.199219 352.828125 187.332031 353.222656 186.382812 353.539062 C 185.515625 353.855469 184.566406 354.167969 183.617188 354.484375 C 182.671875 354.722656 181.722656 354.957031 180.777344 355.117188 C 179.828125 355.273438 178.882812 355.433594 177.933594 355.511719 C 176.984375 355.589844 176.039062 355.589844 175.011719 355.589844 C 174.0625 355.589844 173.117188 355.511719 172.089844 355.351562 C 171.140625 355.273438 170.195312 355.117188 169.246094 354.878906 C 168.300781 354.644531 167.351562 354.40625 166.484375 354.089844 C 165.535156 353.773438 164.667969 353.457031 163.796875 353.0625 C 162.929688 352.667969 162.0625 352.273438 161.191406 351.800781 C 160.324219 351.328125 159.535156 350.855469 158.746094 350.222656 L 126.921875 328.039062 C 126.683594 327.878906 126.527344 327.644531 126.367188 327.328125 C 126.210938 327.011719 126.210938 326.773438 126.289062 326.460938 C 126.367188 326.144531 126.367188 325.75 126.449219 325.433594 L 126.683594 322.90625 L 128.421875 324.40625 C 130.238281 325.984375 132.289062 326.855469 134.660156 327.089844 C 136.238281 327.25 137.738281 327.011719 139.238281 326.460938 C 140.742188 325.90625 142.003906 325.117188 143.109375 323.933594 L 156.21875 310.828125 L 179.511719 327.25 C 179.988281 327.5625 180.460938 327.800781 180.933594 328.039062 C 181.40625 328.273438 181.960938 328.433594 182.511719 328.589844 C 183.066406 328.667969 183.617188 328.75 184.171875 328.75 C 184.726562 328.75 185.277344 328.75 185.832031 328.589844 C 186.382812 328.511719 186.9375 328.355469 187.410156 328.117188 C 187.960938 327.878906 188.4375 327.644531 188.910156 327.328125 C 189.382812 327.011719 189.777344 326.695312 190.253906 326.300781 C 190.648438 325.90625 191.042969 325.511719 191.359375 325.039062 L 208.574219 300.328125 C 209.203125 301.90625 206.675781 307.984375 207.386719 309.566406 C 209.363281 313.984375 215.046875 313.355469 217.96875 317.0625 Z M 217.96875 317.0625 "/><g clip-rule="nonzero" clip-path="url(#17c5610916)"><path style=" stroke:none;fill-rule:nonzero;fill:#204188;fill-opacity:1;" d="M 171.300781 233.617188 L 171.300781 270.566406 C 171.300781 270.722656 171.300781 270.960938 171.222656 271.117188 C 171.140625 271.277344 171.0625 271.433594 170.90625 271.589844 C 170.746094 271.75 170.667969 271.828125 170.433594 271.90625 C 170.273438 271.984375 170.117188 272.066406 169.878906 272.066406 L 154.875 273.328125 C 154.324219 274.90625 153.691406 276.40625 152.980469 277.90625 L 162.773438 289.433594 C 162.851562 289.589844 163.007812 289.75 163.007812 289.90625 C 163.085938 290.066406 163.085938 290.222656 163.085938 290.460938 C 163.085938 290.617188 163.007812 290.855469 162.929688 291.011719 C 162.851562 291.171875 162.773438 291.328125 162.613281 291.484375 L 136.398438 317.617188 C 136.238281 317.773438 136.082031 317.855469 135.921875 317.933594 C 135.765625 318.011719 135.609375 318.011719 135.371094 318.089844 C 135.210938 318.089844 134.976562 318.089844 134.816406 318.011719 C 134.660156 317.933594 134.503906 317.855469 134.34375 317.773438 L 122.816406 308.066406 C 121.316406 308.773438 119.8125 309.40625 118.234375 309.960938 L 116.972656 324.960938 C 116.972656 325.117188 116.890625 325.355469 116.8125 325.511719 C 116.734375 325.667969 116.65625 325.828125 116.496094 325.984375 C 116.339844 326.144531 116.183594 326.222656 116.023438 326.300781 C 115.867188 326.378906 115.707031 326.378906 115.472656 326.378906 L 78.671875 326.378906 C 78.515625 326.378906 78.277344 326.378906 78.121094 326.300781 C 77.960938 326.222656 77.804688 326.144531 77.644531 325.984375 C 77.488281 325.828125 77.410156 325.75 77.332031 325.511719 C 77.25 325.355469 77.171875 325.195312 77.171875 324.960938 L 75.910156 309.960938 C 74.328125 309.40625 72.828125 308.773438 71.328125 308.066406 L 59.878906 317.617188 C 59.722656 317.773438 59.5625 317.855469 59.40625 317.855469 C 59.246094 317.933594 59.089844 317.933594 58.851562 317.933594 C 58.695312 317.933594 58.457031 317.855469 58.300781 317.773438 C 58.140625 317.695312 57.984375 317.617188 57.824219 317.460938 L 31.765625 291.40625 C 31.609375 291.25 31.53125 291.089844 31.449219 290.933594 C 31.371094 290.773438 31.292969 290.617188 31.292969 290.378906 C 31.292969 290.222656 31.292969 289.984375 31.371094 289.828125 C 31.449219 289.671875 31.53125 289.511719 31.609375 289.355469 L 41.402344 277.828125 C 40.691406 276.328125 40.058594 274.828125 39.503906 273.25 L 24.421875 271.984375 C 24.265625 271.984375 24.027344 271.90625 23.871094 271.828125 C 23.710938 271.75 23.554688 271.671875 23.476562 271.511719 C 23.316406 271.355469 23.238281 271.195312 23.160156 271.039062 C 23.160156 270.960938 23.160156 270.800781 23.160156 270.644531 L 23.160156 233.695312 C 23.160156 233.539062 23.160156 233.300781 23.238281 233.144531 C 23.316406 232.988281 23.394531 232.828125 23.554688 232.671875 C 23.710938 232.511719 23.792969 232.433594 23.949219 232.355469 C 24.105469 232.277344 24.265625 232.195312 24.5 232.195312 L 39.503906 230.933594 C 40.058594 229.355469 40.691406 227.855469 41.402344 226.355469 L 31.609375 214.828125 C 31.449219 214.671875 31.371094 214.511719 31.371094 214.355469 C 31.292969 214.195312 31.292969 214.039062 31.292969 213.800781 C 31.292969 213.644531 31.371094 213.40625 31.449219 213.25 C 31.53125 213.09375 31.609375 212.933594 31.765625 212.777344 L 57.90625 186.722656 C 58.0625 186.566406 58.21875 186.488281 58.378906 186.40625 C 58.535156 186.328125 58.695312 186.328125 58.929688 186.25 C 59.089844 186.25 59.324219 186.25 59.484375 186.328125 C 59.640625 186.40625 59.800781 186.488281 59.957031 186.566406 L 71.488281 196.277344 C 72.988281 195.566406 74.488281 194.933594 76.066406 194.382812 L 77.332031 179.382812 C 77.332031 179.222656 77.410156 178.988281 77.488281 178.828125 C 77.566406 178.671875 77.644531 178.511719 77.804688 178.355469 C 77.960938 178.199219 78.121094 178.117188 78.277344 178.039062 C 78.4375 177.960938 78.59375 177.960938 78.832031 177.960938 L 115.867188 177.960938 C 116.023438 177.960938 116.261719 177.960938 116.417969 178.039062 C 116.578125 178.117188 116.734375 178.199219 116.890625 178.355469 C 117.050781 178.511719 117.128906 178.59375 117.207031 178.828125 C 117.289062 178.988281 117.367188 179.144531 117.367188 179.382812 L 118.628906 194.382812 C 120.210938 194.933594 121.710938 195.566406 123.210938 196.277344 L 134.503906 186.644531 C 134.660156 186.488281 134.816406 186.40625 134.976562 186.40625 C 135.132812 186.328125 135.292969 186.328125 135.527344 186.328125 C 135.6875 186.328125 135.921875 186.40625 136.082031 186.488281 C 136.238281 186.566406 136.398438 186.644531 136.554688 186.800781 L 162.691406 212.933594 C 162.851562 213.09375 162.929688 213.25 163.007812 213.40625 C 163.085938 213.566406 163.085938 213.722656 163.167969 213.960938 C 163.167969 214.117188 163.167969 214.355469 163.085938 214.511719 C 163.007812 214.671875 162.929688 214.828125 162.851562 214.988281 L 153.058594 226.511719 C 153.769531 228.011719 154.402344 229.511719 154.953125 231.089844 L 169.957031 232.355469 C 170.117188 232.355469 170.273438 232.433594 170.511719 232.511719 C 170.667969 232.589844 170.828125 232.671875 170.90625 232.828125 C 171.0625 232.988281 171.140625 233.144531 171.222656 233.300781 C 171.222656 233.300781 171.300781 233.460938 171.300781 233.617188 Z M 97.230469 211.277344 C 95.886719 211.277344 94.546875 211.355469 93.203125 211.433594 C 91.859375 211.59375 90.519531 211.75 89.253906 211.988281 C 87.910156 212.222656 86.648438 212.539062 85.386719 212.933594 C 84.121094 213.328125 82.859375 213.800781 81.59375 214.277344 C 80.332031 214.828125 79.148438 215.382812 77.960938 216.011719 C 76.777344 216.644531 75.671875 217.355469 74.488281 218.066406 C 73.382812 218.777344 72.277344 219.566406 71.25 220.433594 C 70.222656 221.300781 69.195312 222.171875 68.25 223.117188 C 67.300781 224.066406 66.433594 225.089844 65.5625 226.117188 C 64.695312 227.144531 63.90625 228.25 63.195312 229.355469 C 62.484375 230.460938 61.773438 231.644531 61.140625 232.828125 C 60.511719 234.011719 59.957031 235.195312 59.40625 236.460938 C 58.851562 237.722656 58.457031 238.988281 58.0625 240.25 C 57.667969 241.511719 57.351562 242.855469 57.113281 244.117188 C 56.878906 245.460938 56.640625 246.722656 56.5625 248.066406 C 56.40625 249.40625 56.40625 250.75 56.40625 252.089844 C 56.40625 253.433594 56.484375 254.777344 56.5625 256.117188 C 56.71875 257.460938 56.878906 258.800781 57.113281 260.066406 C 57.351562 261.40625 57.667969 262.671875 58.0625 263.933594 C 58.457031 265.195312 58.929688 266.460938 59.40625 267.722656 C 59.957031 268.984375 60.511719 270.171875 61.140625 271.355469 C 61.773438 272.539062 62.484375 273.644531 63.195312 274.75 C 63.90625 275.855469 64.773438 276.960938 65.5625 277.984375 C 66.433594 279.011719 67.300781 280.039062 68.25 280.984375 C 69.195312 281.933594 70.222656 282.800781 71.25 283.671875 C 72.277344 284.539062 73.382812 285.328125 74.488281 286.039062 C 75.59375 286.75 76.777344 287.460938 77.960938 288.089844 C 79.148438 288.722656 80.332031 289.273438 81.59375 289.828125 C 82.859375 290.378906 84.121094 290.773438 85.386719 291.171875 C 86.648438 291.566406 87.992188 291.878906 89.253906 292.117188 C 90.519531 292.355469 91.859375 292.589844 93.203125 292.671875 C 94.546875 292.828125 95.886719 292.828125 97.230469 292.828125 C 98.574219 292.828125 99.914062 292.75 101.257812 292.671875 C 102.601562 292.511719 103.941406 292.355469 105.207031 292.117188 C 106.546875 291.878906 107.8125 291.566406 109.074219 291.171875 C 110.339844 290.773438 111.601562 290.300781 112.867188 289.828125 C 114.128906 289.273438 115.3125 288.722656 116.496094 288.089844 C 117.683594 287.460938 118.789062 286.75 119.972656 286.039062 C 121.078125 285.328125 122.183594 284.539062 123.210938 283.671875 C 124.238281 282.800781 125.261719 281.933594 126.210938 280.984375 C 127.15625 280.039062 128.027344 279.011719 128.894531 277.984375 C 129.765625 276.960938 130.554688 275.855469 131.265625 274.75 C 131.976562 273.644531 132.6875 272.460938 133.316406 271.277344 C 133.949219 270.089844 134.503906 268.90625 135.054688 267.644531 C 135.527344 266.378906 136.003906 265.117188 136.398438 263.855469 C 136.792969 262.589844 137.109375 261.25 137.34375 259.984375 C 137.582031 258.644531 137.820312 257.382812 137.898438 256.039062 C 138.054688 254.695312 138.054688 253.355469 138.054688 252.011719 C 138.054688 250.671875 137.976562 249.328125 137.898438 247.984375 C 137.738281 246.644531 137.582031 245.300781 137.34375 244.039062 C 137.109375 242.695312 136.792969 241.433594 136.398438 240.171875 C 136.003906 238.90625 135.527344 237.644531 135.054688 236.382812 C 134.582031 235.117188 133.949219 233.933594 133.316406 232.75 C 132.6875 231.566406 131.976562 230.460938 131.265625 229.277344 C 130.554688 228.089844 129.765625 227.066406 128.894531 226.039062 C 128.027344 225.011719 127.15625 223.988281 126.210938 223.039062 C 125.261719 222.089844 124.238281 221.222656 123.210938 220.355469 C 122.183594 219.488281 121.078125 218.695312 119.972656 217.988281 C 118.867188 217.277344 117.683594 216.566406 116.496094 215.933594 C 115.3125 215.300781 114.128906 214.75 112.867188 214.195312 C 111.601562 213.644531 110.339844 213.25 109.074219 212.855469 C 107.8125 212.460938 106.46875 212.144531 105.207031 211.90625 C 103.863281 211.671875 102.601562 211.433594 101.257812 211.355469 C 99.914062 211.355469 98.574219 211.277344 97.230469 211.277344 Z M 97.230469 211.277344 "/></g><path style=" stroke:none;fill-rule:nonzero;fill:#ffffff;fill-opacity:1;" d="M 97.230469 300.484375 C 94.070312 300.328125 90.992188 299.933594 87.992188 299.222656 C 84.910156 298.511719 81.988281 297.484375 79.148438 296.222656 C 76.304688 294.960938 73.539062 293.378906 71.011719 291.644531 C 68.484375 289.828125 66.039062 287.855469 63.90625 285.566406 C 62.800781 284.460938 61.773438 283.273438 60.828125 282.089844 C 59.878906 280.90625 58.929688 279.644531 58.140625 278.378906 C 57.273438 277.117188 56.484375 275.777344 55.773438 274.433594 C 55.0625 273.089844 54.429688 271.671875 53.796875 270.25 C 53.246094 268.828125 52.691406 267.40625 52.296875 265.90625 C 51.824219 264.40625 51.507812 262.90625 51.191406 261.40625 C 50.875 259.90625 50.640625 258.40625 50.5625 256.828125 C 50.402344 255.328125 50.324219 253.75 50.324219 252.25 C 50.324219 250.75 50.402344 249.171875 50.5625 247.671875 C 50.71875 246.171875 50.957031 244.589844 51.191406 243.089844 C 51.429688 241.589844 51.824219 240.089844 52.296875 238.589844 C 52.773438 237.089844 53.246094 235.671875 53.796875 234.25 C 54.351562 232.828125 55.0625 231.40625 55.773438 230.066406 C 56.484375 228.722656 57.273438 227.382812 58.140625 226.039062 C 59.011719 224.777344 59.878906 223.511719 60.828125 222.328125 C 61.773438 221.144531 62.800781 219.960938 63.90625 218.855469 C 66.117188 216.644531 68.484375 214.59375 71.011719 212.777344 C 73.539062 210.960938 76.304688 209.460938 79.148438 208.195312 C 81.988281 206.933594 84.988281 205.90625 87.992188 205.195312 C 91.070312 204.488281 94.148438 204.011719 97.230469 203.933594 C 90.753906 203.695312 84.515625 204.722656 78.4375 207.011719 C 72.355469 209.382812 66.90625 212.777344 62.246094 217.355469 C 57.511719 221.933594 53.878906 227.222656 51.273438 233.300781 C 50.007812 236.300781 49.058594 239.382812 48.351562 242.617188 C 47.71875 245.855469 47.402344 249.089844 47.402344 252.328125 C 47.402344 255.566406 47.71875 258.800781 48.351562 262.039062 C 48.980469 265.277344 50.007812 268.355469 51.273438 271.355469 C 53.878906 277.433594 57.511719 282.722656 62.246094 287.378906 C 66.984375 291.960938 72.355469 295.433594 78.4375 297.800781 C 84.515625 299.773438 90.753906 300.800781 97.230469 300.484375 Z M 97.230469 300.484375 "/><g clip-rule="nonzero" clip-path="url(#07b9586b7c)"><path style=" stroke:none;fill-rule:nonzero;fill:#204188;fill-opacity:1;" d="M 305.699219 254.460938 C 302.226562 250.511719 298.277344 247.039062 294.015625 244.039062 C 287.617188 239.617188 280.589844 236.300781 273.089844 234.25 C 271.191406 233.695312 269.21875 233.300781 267.246094 232.90625 C 264.164062 232.355469 261.320312 231.171875 258.714844 229.355469 C 258.558594 229.277344 258.480469 229.195312 258.320312 229.117188 L 312.808594 151.117188 C 313.125 150.644531 313.359375 150.171875 313.597656 149.699219 C 313.835938 149.222656 313.992188 148.671875 314.152344 148.117188 C 314.308594 147.566406 314.308594 147.011719 314.308594 146.460938 C 314.308594 145.910156 314.308594 145.355469 314.152344 144.804688 C 314.070312 144.25 313.914062 143.699219 313.675781 143.222656 C 313.441406 142.671875 313.203125 142.199219 312.964844 141.722656 C 312.648438 141.25 312.335938 140.777344 311.9375 140.382812 C 311.542969 139.988281 311.148438 139.59375 310.675781 139.277344 L 214.574219 72.25 C 214.414062 68.777344 214.019531 65.382812 213.308594 61.910156 C 212.601562 58.515625 211.730469 55.199219 210.46875 51.882812 C 209.28125 48.644531 207.863281 45.488281 206.203125 42.410156 C 204.546875 39.410156 202.648438 36.488281 200.519531 33.726562 L 201.625 32.144531 C 202.175781 31.355469 202.808594 30.566406 203.359375 29.855469 C 203.992188 29.148438 204.625 28.4375 205.335938 27.726562 C 206.046875 27.09375 206.757812 26.382812 207.546875 25.832031 C 208.335938 25.277344 209.125 24.648438 209.914062 24.171875 C 210.703125 23.621094 211.574219 23.148438 212.441406 22.75 C 213.308594 22.277344 214.179688 21.882812 215.046875 21.566406 C 215.917969 21.25 216.863281 20.9375 217.8125 20.621094 C 218.757812 20.304688 219.707031 20.148438 220.65625 19.988281 C 221.601562 19.832031 222.550781 19.671875 223.496094 19.59375 C 224.445312 19.515625 225.390625 19.515625 226.417969 19.515625 C 227.367188 19.515625 228.3125 19.59375 229.339844 19.75 C 230.289062 19.832031 231.234375 19.988281 232.183594 20.226562 C 233.132812 20.460938 234.078125 20.699219 234.945312 21.015625 C 235.894531 21.332031 236.761719 21.648438 237.632812 22.042969 C 238.5 22.4375 239.371094 22.832031 240.238281 23.304688 C 241.105469 23.777344 241.894531 24.25 242.6875 24.804688 L 339.023438 91.988281 C 339.816406 92.539062 340.605469 93.171875 341.316406 93.726562 C 342.027344 94.277344 342.734375 94.988281 343.445312 95.699219 C 344.078125 96.410156 344.789062 97.121094 345.34375 97.910156 C 345.972656 98.699219 346.527344 99.488281 347 100.277344 C 347.554688 101.066406 348.027344 101.933594 348.421875 102.804688 C 348.894531 103.671875 349.289062 104.539062 349.605469 105.410156 C 349.921875 106.277344 350.238281 107.222656 350.554688 108.171875 C 350.789062 109.121094 351.027344 110.066406 351.1875 111.015625 C 351.34375 111.960938 351.5 112.910156 351.582031 113.855469 C 351.660156 114.804688 351.660156 115.75 351.660156 116.777344 C 351.660156 117.722656 351.582031 118.671875 351.421875 119.699219 C 351.34375 120.644531 351.1875 121.59375 350.949219 122.539062 C 350.710938 123.488281 350.476562 124.433594 350.160156 125.304688 C 349.84375 126.25 349.527344 127.121094 349.132812 127.988281 C 348.738281 128.855469 348.34375 129.722656 347.867188 130.59375 C 347.394531 131.460938 346.921875 132.25 346.367188 133.039062 L 280.90625 226.90625 C 287.144531 231.171875 300.566406 241.433594 305.699219 254.460938 Z M 283.589844 69.015625 C 282.800781 68.460938 281.851562 67.910156 280.984375 67.515625 C 280.117188 67.121094 279.089844 66.804688 278.140625 66.566406 C 277.195312 66.332031 276.167969 66.25 275.140625 66.171875 C 274.113281 66.171875 273.167969 66.25 272.140625 66.410156 C 271.113281 66.566406 270.167969 66.882812 269.21875 67.199219 C 268.269531 67.59375 267.402344 67.988281 266.535156 68.539062 C 265.664062 69.09375 264.875 69.726562 264.164062 70.433594 C 263.453125 71.144531 262.742188 71.855469 262.191406 72.726562 C 261.636719 73.515625 261.085938 74.460938 260.691406 75.332031 C 260.296875 76.277344 259.980469 77.226562 259.742188 78.171875 C 259.503906 79.121094 259.425781 80.144531 259.347656 81.171875 C 259.347656 82.199219 259.425781 83.144531 259.585938 84.171875 C 259.742188 85.199219 260.058594 86.144531 260.375 87.09375 C 260.691406 88.039062 261.164062 88.910156 261.71875 89.777344 C 262.269531 90.644531 262.902344 91.433594 263.613281 92.144531 C 264.324219 92.855469 265.035156 93.488281 265.902344 94.121094 C 266.691406 94.671875 267.640625 95.226562 268.507812 95.621094 C 269.457031 96.015625 270.402344 96.328125 271.351562 96.566406 C 272.296875 96.804688 273.324219 96.882812 274.351562 96.960938 C 275.378906 96.960938 276.324219 96.882812 277.351562 96.726562 C 278.378906 96.566406 279.328125 96.25 280.273438 95.933594 C 281.222656 95.539062 282.089844 95.144531 282.957031 94.59375 C 283.828125 94.039062 284.617188 93.410156 285.328125 92.699219 C 286.039062 91.988281 286.75 91.277344 287.300781 90.410156 C 287.855469 89.621094 288.40625 88.671875 288.800781 87.804688 C 289.195312 86.855469 289.511719 85.910156 289.75 84.960938 C 289.988281 84.015625 290.066406 82.988281 290.144531 81.960938 C 290.144531 80.933594 290.066406 79.988281 289.90625 78.960938 C 289.75 77.933594 289.433594 76.988281 289.117188 76.039062 C 288.722656 75.09375 288.328125 74.226562 287.777344 73.355469 C 287.222656 72.488281 286.589844 71.699219 285.878906 70.988281 C 285.167969 70.199219 284.460938 69.566406 283.589844 69.015625 Z M 283.589844 69.015625 "/></g><path style=" stroke:none;fill-rule:nonzero;fill:#ffffff;fill-opacity:1;" d="M 340.128906 128.855469 C 342.421875 126.09375 343.84375 122.933594 344.550781 119.382812 C 344.867188 117.566406 344.949219 115.75 344.867188 113.933594 C 344.710938 112.121094 344.394531 110.304688 343.84375 108.566406 C 343.289062 106.828125 342.5 105.171875 341.550781 103.671875 C 340.605469 102.09375 339.5 100.671875 338.15625 99.410156 C 337.839844 99.09375 337.523438 98.777344 337.128906 98.460938 L 336.023438 97.59375 C 335.3125 96.960938 334.601562 96.566406 333.890625 96.015625 L 329.628906 93.015625 L 321.097656 87.171875 C 318.179688 85.277344 315.335938 83.304688 312.414062 81.410156 C 306.570312 77.621094 300.726562 73.910156 294.726562 70.433594 C 300.09375 74.855469 305.542969 79.121094 311.148438 83.226562 C 313.914062 85.277344 316.757812 87.332031 319.519531 89.382812 L 328.046875 95.382812 L 332.3125 98.304688 C 333.023438 98.777344 333.8125 99.25 334.367188 99.804688 L 335.3125 100.515625 C 335.628906 100.75 335.945312 101.066406 336.261719 101.304688 C 338.710938 103.515625 340.523438 106.199219 341.710938 109.355469 C 342.894531 112.515625 343.367188 115.75 343.132812 119.144531 C 342.894531 122.621094 341.867188 125.855469 340.128906 128.855469 Z M 340.128906 128.855469 "/><g clip-rule="nonzero" clip-path="url(#1e32edaa4e)"><path style=" stroke:none;fill-rule:nonzero;fill:#f78c02;fill-opacity:1;" d="M 199.015625 103.671875 C 197.910156 105.726562 197.042969 107.933594 196.492188 110.222656 C 195.9375 112.515625 195.621094 114.804688 195.542969 117.171875 C 195.542969 119.539062 195.78125 121.828125 196.253906 124.117188 C 196.804688 126.410156 197.515625 128.617188 198.542969 130.75 L 243.949219 224.777344 C 244.976562 226.90625 246.160156 228.882812 247.660156 230.695312 C 249.160156 232.511719 250.820312 234.171875 252.636719 235.589844 C 254.53125 237.011719 256.503906 238.195312 258.636719 239.222656 C 260.769531 240.171875 262.980469 240.882812 265.347656 241.355469 C 266.535156 241.589844 267.640625 241.828125 268.824219 242.066406 C 270.007812 242.300781 271.113281 242.617188 272.21875 243.011719 C 273.324219 243.328125 274.507812 243.722656 275.613281 244.117188 C 276.71875 244.511719 277.824219 244.984375 278.929688 245.460938 C 280.035156 245.933594 281.0625 246.484375 282.167969 246.960938 C 283.195312 247.511719 284.222656 248.066406 285.25 248.695312 C 286.273438 249.328125 287.300781 249.960938 288.25 250.589844 C 289.195312 251.222656 290.222656 251.933594 291.171875 252.644531 C 292.117188 253.355469 292.988281 254.144531 293.933594 254.855469 C 294.804688 255.644531 295.671875 256.433594 296.539062 257.222656 C 297.410156 258.089844 298.199219 258.878906 298.988281 259.75 C 299.777344 260.617188 300.566406 261.484375 301.277344 262.433594 C 301.988281 263.378906 302.699219 264.328125 303.410156 265.277344 C 304.121094 266.222656 304.753906 267.25 305.386719 268.195312 C 306.015625 269.222656 306.648438 270.25 307.203125 271.277344 C 307.753906 272.300781 308.308594 273.40625 308.78125 274.433594 C 309.253906 275.539062 309.726562 276.566406 310.203125 277.671875 C 310.675781 278.773438 311.070312 279.878906 311.386719 280.984375 C 311.703125 282.089844 312.097656 283.273438 312.414062 284.378906 C 312.730469 285.484375 312.964844 286.671875 313.203125 287.855469 C 313.441406 289.039062 313.675781 290.144531 313.835938 291.328125 C 313.992188 292.511719 314.148438 293.695312 314.230469 294.878906 C 314.308594 296.066406 314.386719 297.25 314.386719 298.433594 C 314.386719 299.617188 314.386719 300.800781 314.386719 301.984375 C 314.308594 303.167969 314.230469 304.355469 314.152344 305.539062 C 314.070312 306.722656 313.914062 307.90625 313.675781 309.089844 C 313.519531 310.273438 313.28125 311.460938 313.042969 312.5625 C 312.808594 313.75 312.492188 314.855469 312.175781 316.039062 C 311.859375 317.222656 311.464844 318.328125 311.148438 319.433594 C 310.753906 320.539062 310.359375 321.644531 309.886719 322.75 C 309.414062 323.855469 308.9375 324.960938 308.464844 325.984375 C 307.910156 327.011719 307.4375 328.117188 306.804688 329.144531 L 286.511719 287.222656 C 286.039062 286.273438 285.40625 285.484375 284.539062 284.933594 C 283.667969 284.378906 282.722656 283.984375 281.695312 283.90625 L 249.082031 281.066406 C 248.53125 280.984375 248.054688 281.066406 247.503906 281.144531 C 246.949219 281.222656 246.476562 281.378906 246.003906 281.617188 C 245.527344 281.855469 245.054688 282.171875 244.660156 282.484375 C 244.265625 282.800781 243.949219 283.195312 243.632812 283.671875 L 225.550781 310.90625 C 224.996094 311.773438 224.679688 312.722656 224.601562 313.75 C 224.523438 314.773438 224.761719 315.800781 225.15625 316.75 L 245.527344 358.75 C 244.34375 358.589844 243.160156 358.351562 242.054688 358.117188 C 240.871094 357.878906 239.765625 357.5625 238.578125 357.25 C 237.472656 356.933594 236.289062 356.539062 235.183594 356.144531 C 234.078125 355.75 232.972656 355.351562 231.867188 354.878906 C 230.761719 354.40625 229.734375 353.933594 228.628906 353.378906 C 227.601562 352.828125 226.496094 352.273438 225.472656 351.722656 C 224.445312 351.167969 223.417969 350.539062 222.46875 349.90625 C 221.445312 349.273438 220.496094 348.5625 219.546875 347.855469 C 218.601562 347.144531 217.652344 346.433594 216.785156 345.644531 C 215.835938 344.855469 214.96875 344.0625 214.101562 343.273438 C 213.230469 342.484375 212.363281 341.617188 211.574219 340.75 C 210.785156 339.878906 209.992188 339.011719 209.203125 338.0625 C 208.414062 337.117188 207.703125 336.25 206.992188 335.300781 C 206.28125 334.355469 205.570312 333.40625 204.941406 332.378906 C 204.308594 331.355469 203.675781 330.40625 203.125 329.378906 C 202.570312 328.355469 202.019531 327.328125 201.464844 326.222656 C 200.914062 325.195312 200.4375 324.089844 199.964844 322.984375 C 199.492188 321.878906 199.097656 320.773438 198.703125 319.667969 C 198.308594 318.5625 197.910156 317.460938 197.597656 316.273438 C 197.28125 315.167969 196.964844 313.984375 196.726562 312.800781 C 196.492188 311.617188 196.253906 310.511719 196.015625 309.328125 C 195.859375 308.144531 195.699219 306.960938 195.542969 305.773438 C 195.386719 304.589844 195.304688 303.40625 195.304688 302.222656 C 195.226562 301.039062 195.226562 299.855469 195.226562 298.667969 C 195.226562 297.484375 195.304688 296.300781 195.386719 295.117188 C 195.464844 293.933594 195.621094 292.75 195.78125 291.566406 C 195.9375 290.378906 196.175781 289.195312 196.410156 288.089844 C 196.648438 286.90625 196.886719 285.800781 197.203125 284.617188 C 197.515625 283.433594 197.832031 282.328125 198.226562 281.222656 C 198.621094 280.117188 199.015625 279.011719 199.414062 277.90625 C 199.808594 276.800781 200.28125 275.695312 200.832031 274.671875 C 201.308594 273.566406 201.859375 272.539062 202.414062 271.511719 C 203.519531 269.460938 204.386719 267.25 204.941406 264.960938 C 205.492188 262.671875 205.808594 260.378906 205.886719 258.011719 C 205.886719 255.644531 205.652344 253.355469 205.175781 251.066406 C 204.625 248.777344 203.914062 246.566406 202.886719 244.433594 L 157.480469 150.410156 C 156.453125 148.277344 155.269531 146.304688 153.769531 144.488281 C 152.269531 142.671875 150.609375 141.015625 148.796875 139.59375 C 146.898438 138.171875 144.925781 136.988281 142.792969 135.960938 C 140.660156 135.015625 138.449219 134.304688 136.082031 133.828125 C 134.898438 133.59375 133.792969 133.355469 132.605469 133.117188 C 131.421875 132.882812 130.316406 132.566406 129.210938 132.171875 C 128.105469 131.855469 126.921875 131.460938 125.816406 131.066406 C 124.710938 130.671875 123.605469 130.199219 122.5 129.722656 C 121.394531 129.25 120.367188 128.777344 119.261719 128.222656 C 118.234375 127.671875 117.207031 127.117188 116.183594 126.488281 C 115.15625 125.855469 114.128906 125.222656 113.179688 124.59375 C 112.234375 123.960938 111.207031 123.25 110.257812 122.539062 C 109.3125 121.828125 108.363281 121.039062 107.496094 120.328125 C 106.625 119.539062 105.757812 118.75 104.890625 117.960938 C 104.019531 117.171875 103.230469 116.304688 102.441406 115.433594 C 101.652344 114.566406 100.863281 113.699219 100.152344 112.75 C 99.441406 111.804688 98.730469 110.855469 98.019531 109.910156 C 97.308594 108.960938 96.675781 107.933594 96.046875 106.988281 C 95.414062 105.960938 94.78125 104.933594 94.230469 103.910156 C 93.675781 102.882812 93.125 101.777344 92.648438 100.75 C 92.175781 99.644531 91.703125 98.621094 91.226562 97.515625 C 90.753906 96.410156 90.359375 95.304688 90.042969 94.199219 C 89.648438 93.09375 89.332031 91.910156 89.015625 90.804688 C 88.703125 89.699219 88.464844 88.515625 88.226562 87.328125 C 87.992188 86.144531 87.753906 85.039062 87.597656 83.855469 C 87.4375 82.671875 87.28125 81.488281 87.203125 80.304688 C 87.121094 79.121094 87.042969 77.933594 87.042969 76.75 C 87.042969 75.566406 87.042969 74.382812 87.042969 73.199219 C 87.121094 72.015625 87.203125 70.832031 87.28125 69.644531 C 87.359375 68.460938 87.515625 67.277344 87.753906 66.09375 C 87.910156 64.910156 88.148438 63.726562 88.386719 62.621094 C 88.621094 61.4375 88.9375 60.332031 89.253906 59.144531 C 89.570312 58.039062 89.964844 56.855469 90.28125 55.75 C 90.675781 54.644531 91.070312 53.539062 91.542969 52.4375 C 92.019531 51.332031 92.492188 50.226562 92.964844 49.199219 C 93.519531 48.171875 94.070312 47.066406 94.625 46.042969 L 114.917969 87.960938 C 115.390625 88.910156 116.023438 89.699219 116.890625 90.25 C 117.761719 90.882812 118.707031 91.199219 119.734375 91.277344 L 152.347656 94.121094 C 152.902344 94.199219 153.375 94.121094 153.929688 94.039062 C 154.480469 93.960938 154.953125 93.804688 155.429688 93.566406 C 155.902344 93.328125 156.375 93.015625 156.769531 92.699219 C 157.164062 92.382812 157.480469 91.988281 157.796875 91.515625 L 175.878906 64.277344 C 176.433594 63.410156 176.75 62.460938 176.828125 61.4375 C 176.90625 60.410156 176.671875 59.382812 176.273438 58.4375 L 156.058594 16.515625 C 157.246094 16.671875 158.429688 16.910156 159.535156 17.148438 C 160.71875 17.382812 161.824219 17.699219 163.007812 18.015625 C 164.113281 18.332031 165.300781 18.726562 166.40625 19.121094 C 167.511719 19.515625 168.617188 19.910156 169.722656 20.382812 C 170.828125 20.855469 171.851562 21.332031 172.957031 21.882812 C 173.984375 22.4375 175.089844 22.988281 176.117188 23.542969 C 177.144531 24.09375 178.171875 24.726562 179.117188 25.355469 C 180.144531 25.988281 181.09375 26.699219 182.039062 27.410156 C 182.988281 28.121094 183.933594 28.832031 184.804688 29.621094 C 185.75 30.410156 186.621094 31.199219 187.488281 31.988281 C 188.355469 32.777344 189.226562 33.644531 190.015625 34.515625 C 190.804688 35.382812 191.59375 36.25 192.382812 37.199219 C 193.175781 38.144531 193.882812 39.015625 194.59375 39.960938 C 195.304688 40.910156 196.015625 41.855469 196.648438 42.882812 C 197.28125 43.910156 197.910156 44.855469 198.464844 45.882812 C 199.015625 46.910156 199.570312 47.9375 200.121094 49.039062 C 200.675781 50.066406 201.148438 51.171875 201.625 52.277344 C 202.097656 53.382812 202.492188 54.488281 202.886719 55.59375 C 203.28125 56.699219 203.675781 57.804688 203.992188 58.988281 C 204.308594 60.09375 204.625 61.277344 204.859375 62.460938 C 205.097656 63.644531 205.335938 64.75 205.492188 65.933594 C 205.652344 67.121094 205.808594 68.304688 205.964844 69.488281 C 206.125 70.671875 206.203125 71.855469 206.203125 73.039062 C 206.28125 74.226562 206.28125 75.410156 206.28125 76.59375 C 206.28125 77.777344 206.203125 78.960938 206.125 80.144531 C 206.046875 81.328125 205.886719 82.515625 205.730469 83.699219 C 205.570312 84.882812 205.335938 86.066406 205.097656 87.171875 C 204.859375 88.355469 204.625 89.460938 204.308594 90.644531 C 203.992188 91.828125 203.675781 92.933594 203.28125 94.039062 C 202.886719 95.144531 202.492188 96.25 202.097656 97.355469 C 201.703125 98.460938 201.230469 99.566406 200.675781 100.59375 C 200.125 101.621094 199.648438 102.644531 199.015625 103.671875 Z M 177.777344 124.828125 C 177.617188 124.433594 177.378906 124.039062 177.144531 123.722656 C 176.90625 123.410156 176.589844 123.015625 176.273438 122.777344 C 175.960938 122.460938 175.566406 122.222656 175.25 121.988281 C 174.855469 121.75 174.460938 121.59375 174.0625 121.433594 C 173.667969 121.277344 173.195312 121.199219 172.800781 121.121094 C 172.40625 121.039062 171.933594 121.039062 171.457031 121.039062 C 170.984375 121.039062 170.589844 121.121094 170.195312 121.199219 C 169.800781 121.277344 169.324219 121.433594 168.929688 121.671875 C 168.535156 121.828125 168.140625 122.066406 167.824219 122.382812 C 167.511719 122.621094 167.195312 122.933594 166.878906 123.25 C 166.5625 123.566406 166.324219 123.960938 166.089844 124.277344 C 165.851562 124.59375 165.695312 125.066406 165.535156 125.460938 C 165.378906 125.855469 165.300781 126.328125 165.21875 126.722656 C 165.140625 127.117188 165.140625 127.59375 165.140625 128.066406 C 165.140625 128.539062 165.21875 128.933594 165.378906 129.328125 C 165.457031 129.722656 165.613281 130.199219 165.851562 130.515625 L 223.734375 250.433594 C 223.890625 250.828125 224.128906 251.222656 224.367188 251.539062 C 224.601562 251.855469 224.917969 252.25 225.234375 252.484375 C 225.550781 252.800781 225.945312 253.039062 226.261719 253.277344 C 226.65625 253.511719 227.050781 253.671875 227.445312 253.828125 C 227.839844 253.984375 228.3125 254.066406 228.707031 254.144531 C 229.105469 254.222656 229.578125 254.222656 230.050781 254.222656 C 230.523438 254.222656 230.921875 254.144531 231.316406 254.066406 C 231.710938 253.984375 232.183594 253.828125 232.578125 253.589844 C 232.972656 253.433594 233.367188 253.195312 233.683594 252.882812 C 234 252.644531 234.316406 252.328125 234.632812 252.011719 C 234.945312 251.695312 235.183594 251.300781 235.421875 250.984375 C 235.65625 250.589844 235.816406 250.195312 235.972656 249.800781 C 236.132812 249.40625 236.210938 248.933594 236.289062 248.539062 C 236.367188 248.144531 236.367188 247.671875 236.367188 247.195312 C 236.367188 246.722656 236.289062 246.328125 236.132812 245.933594 C 236.054688 245.539062 235.894531 245.066406 235.65625 244.75 Z M 177.777344 124.828125 "/></g><path style=" stroke:none;fill-rule:nonzero;fill:#ffffff;fill-opacity:1;" d="M 194.910156 101.460938 C 197.515625 97.828125 199.726562 94.039062 201.542969 89.933594 C 201.78125 89.382812 202.019531 88.910156 202.175781 88.355469 L 202.730469 86.777344 C 203.125 85.671875 203.441406 84.644531 203.675781 83.539062 C 204.230469 81.332031 204.546875 79.039062 204.625 76.75 C 204.625 75.644531 204.625 74.460938 204.464844 73.355469 L 204.308594 71.621094 C 204.230469 71.066406 204.148438 70.515625 204.070312 69.960938 C 203.835938 68.855469 203.597656 67.75 203.28125 66.644531 L 202.808594 64.988281 C 202.648438 64.433594 202.414062 63.960938 202.253906 63.410156 C 200.675781 59.226562 198.621094 55.277344 196.097656 51.566406 C 197.4375 55.832031 198.9375 59.9375 200.042969 64.121094 C 200.359375 65.144531 200.597656 66.171875 200.832031 67.277344 C 201.070312 68.304688 201.308594 69.332031 201.386719 70.433594 C 201.625 71.460938 201.625 72.566406 201.703125 73.59375 C 201.78125 74.621094 201.703125 75.726562 201.78125 76.75 C 201.625 81.015625 200.832031 85.199219 199.492188 89.226562 C 198.070312 93.25 196.492188 97.277344 194.910156 101.460938 Z M 194.910156 101.460938 "/><path style=" stroke:none;fill-rule:nonzero;fill:#ffffff;fill-opacity:1;" d="M 264.636719 245.933594 C 259.503906 244.75 254.847656 242.460938 250.820312 239.066406 C 248.84375 237.40625 247.1875 235.511719 245.6875 233.382812 C 244.265625 231.25 243.238281 228.960938 242.527344 226.511719 L 242.527344 226.355469 C 240.710938 222.40625 238.894531 218.460938 237.078125 214.511719 C 235.261719 210.566406 233.367188 206.617188 231.472656 202.75 C 227.761719 194.933594 223.890625 187.117188 220.101562 179.222656 L 214.179688 167.539062 L 208.257812 155.933594 C 204.308594 148.199219 200.28125 140.460938 196.097656 132.882812 C 199.492188 140.933594 203.042969 148.828125 206.597656 156.804688 L 212.046875 168.644531 L 217.574219 180.488281 C 221.363281 188.300781 225.078125 196.199219 228.945312 204.011719 C 230.839844 207.960938 232.734375 211.828125 234.710938 215.695312 C 236.683594 219.566406 238.578125 223.433594 240.554688 227.382812 L 240.476562 227.222656 C 241.34375 229.828125 242.605469 232.277344 244.265625 234.40625 C 245.84375 236.539062 247.738281 238.433594 249.949219 240.089844 C 252.082031 241.671875 254.453125 243.011719 256.898438 243.960938 C 259.347656 244.90625 261.953125 245.539062 264.636719 245.933594 Z M 264.636719 245.933594 "/><path style=" stroke:none;fill-rule:nonzero;fill:#ffffff;fill-opacity:1;" d="M 97.152344 99.25 C 100.074219 105.882812 104.179688 111.722656 109.46875 116.699219 C 114.839844 121.671875 120.917969 125.460938 127.789062 128.066406 C 129.527344 128.699219 131.183594 129.25 133 129.722656 C 134.738281 130.199219 136.632812 130.515625 138.214844 130.910156 C 141.53125 131.777344 144.6875 133.039062 147.6875 134.777344 C 153.691406 138.488281 158.507812 143.304688 162.296875 149.304688 L 162.21875 149.144531 C 166.007812 156.960938 169.800781 164.855469 173.589844 172.671875 C 177.378906 180.488281 181.25 188.300781 185.121094 196.117188 C 188.988281 203.933594 192.859375 211.671875 196.886719 219.40625 L 202.886719 231.011719 C 204.859375 234.882812 206.914062 238.75 208.886719 242.617188 C 207.152344 238.589844 205.414062 234.644531 203.597656 230.695312 L 198.226562 218.777344 C 194.59375 210.882812 190.964844 202.988281 187.25 195.09375 C 183.539062 187.199219 179.828125 179.382812 176.117188 171.488281 C 172.40625 163.59375 168.617188 155.777344 164.746094 147.960938 L 164.746094 147.804688 C 162.773438 144.722656 160.402344 141.882812 157.875 139.277344 C 155.269531 136.671875 152.347656 134.460938 149.109375 132.566406 C 145.875 130.671875 142.476562 129.410156 138.84375 128.539062 C 137.027344 128.144531 135.371094 127.910156 133.632812 127.515625 C 131.894531 127.117188 130.238281 126.644531 128.578125 126.09375 C 125.261719 124.910156 122.023438 123.488281 118.945312 121.75 C 115.867188 120.015625 113.023438 117.960938 110.339844 115.671875 C 107.652344 113.382812 105.207031 110.855469 102.996094 108.09375 C 100.785156 105.328125 98.886719 102.410156 97.230469 99.25 Z M 97.152344 99.25 "/></g></svg>