<svg xmlns="http://www.w3.org/2000/svg" xmlns:xlink="http://www.w3.org/1999/xlink" width="500" zoomAndPan="magnify" viewBox="0 0 375 374.999991" height="500" preserveAspectRatio="xMidYMid meet" version="1.2"><defs><clipPath id="f16a8ab9f1"><path d="M 66 106 L 123.75 106 L 123.75 196 L 66 196 Z M 66 106 "/></clipPath><clipPath id="247ba7701b"><path d="M 24 105.390625 L 110 105.390625 L 110 234.378906 L 24 234.378906 Z M 24 105.390625 "/></clipPath></defs><g id="0ad7f639a9"><g style="fill:#204188;fill-opacity:1;"><g transform="translate(125.057267, 171.760045)"><path style="stroke:none" d="M 14.15625 -2.046875 C 13.539062 -3.941406 13 -5.785156 12.53125 -7.578125 L 10.265625 -15.359375 C 9.503906 -17.910156 8.914062 -19.820312 8.5 -21.09375 C 8.113281 -22.507812 7.804688 -23.570312 7.578125 -24.28125 L 0.359375 -48.703125 L 14.796875 -48.703125 L 28.03125 0 L 14.796875 0 Z M 25.265625 -21.59375 L 32.421875 -48.703125 L 46.578125 -48.703125 L 39.359375 -24.28125 L 36.734375 -15.359375 C 35.890625 -12.617188 35.113281 -10.023438 34.40625 -7.578125 C 33.925781 -5.785156 33.378906 -3.941406 32.765625 -2.046875 L 32.140625 0 L 31.140625 0 Z M 25.265625 -21.59375 "/></g></g><g style="fill:#204188;fill-opacity:1;"><g transform="translate(171.977479, 171.760045)"><path style="stroke:none" d="M 38.15625 -37.515625 C 36.59375 -37.703125 33.851562 -37.960938 29.9375 -38.296875 C 27.769531 -38.390625 26.023438 -38.4375 24.703125 -38.4375 C 23.003906 -38.4375 21.398438 -38.390625 19.890625 -38.296875 L 19.890625 -49.265625 L 21.65625 -49.265625 C 25.53125 -49.265625 29.539062 -49.003906 33.6875 -48.484375 C 35.007812 -48.296875 36.5 -48.035156 38.15625 -47.703125 Z M 26.46875 -14.375 C 26.46875 -15.363281 26.394531 -16.082031 26.25 -16.53125 C 26.113281 -16.976562 25.878906 -17.28125 25.546875 -17.4375 C 25.222656 -17.601562 24.660156 -17.738281 23.859375 -17.84375 L 15.140625 -18.90625 C 10.003906 -19.46875 6.539062 -21.140625 4.75 -23.921875 C 3.9375 -25.097656 3.390625 -26.535156 3.109375 -28.234375 C 2.828125 -29.941406 2.6875 -32.019531 2.6875 -34.46875 C 2.6875 -39.707031 4.03125 -43.484375 6.71875 -45.796875 C 8.894531 -47.679688 12.296875 -48.789062 16.921875 -49.125 L 16.921875 -34.890625 C 16.921875 -34.273438 16.941406 -33.753906 16.984375 -33.328125 C 17.035156 -32.910156 17.128906 -32.582031 17.265625 -32.34375 C 17.410156 -32.0625 17.644531 -31.859375 17.96875 -31.734375 C 18.300781 -31.617188 18.800781 -31.539062 19.46875 -31.5 L 29.234375 -30.296875 C 31.265625 -30.015625 32.914062 -29.660156 34.1875 -29.234375 C 35.457031 -28.804688 36.539062 -28.144531 37.4375 -27.25 C 39.5625 -25.03125 40.625 -21.09375 40.625 -15.4375 C 40.625 -9.4375 39.304688 -5.234375 36.671875 -2.828125 C 35.484375 -1.742188 34.050781 -0.953125 32.375 -0.453125 C 30.707031 0.0351562 28.738281 0.351562 26.46875 0.5 Z M 22.71875 0.5625 C 18 0.5625 13.613281 0.347656 9.5625 -0.078125 C 7.15625 -0.304688 5.335938 -0.539062 4.109375 -0.78125 L 4.109375 -11.109375 C 6.890625 -10.878906 10.070312 -10.644531 13.65625 -10.40625 C 15.925781 -10.3125 17.53125 -10.265625 18.46875 -10.265625 C 21.019531 -10.265625 22.695312 -10.332031 23.5 -10.46875 L 23.5 0.5625 Z M 22.71875 0.5625 "/></g></g><g style="fill:#204188;fill-opacity:1;"><g transform="translate(215.288443, 171.760045)"><path style="stroke:none" d="M 4.59375 -48.703125 L 18.75 -48.703125 L 18.75 0 L 4.59375 0 Z M 31.921875 -18.75 L 21.734375 -18.75 L 21.734375 -30.078125 L 31.921875 -30.078125 L 31.921875 -48.703125 L 46.078125 -48.703125 L 46.078125 0 L 31.921875 0 Z M 31.921875 -18.75 "/></g></g><g style="fill:#204188;fill-opacity:1;"><g transform="translate(265.959433, 171.760045)"><path style="stroke:none" d="M 31.640625 -24.34375 C 31.640625 -28.445312 31.613281 -31.140625 31.5625 -32.421875 C 31.46875 -34.347656 31.207031 -35.75 30.78125 -36.625 C 30.363281 -37.5 29.679688 -38.03125 28.734375 -38.21875 C 27.796875 -38.363281 26.453125 -38.4375 24.703125 -38.4375 C 22.671875 -38.4375 21.347656 -38.34375 20.734375 -38.15625 L 20.734375 -49.1875 C 21.160156 -49.238281 21.800781 -49.265625 22.65625 -49.265625 L 24.703125 -49.265625 C 29.984375 -49.265625 34.078125 -48.847656 36.984375 -48.015625 C 39.890625 -47.191406 42 -45.835938 43.3125 -43.953125 C 44.539062 -42.210938 45.304688 -39.925781 45.609375 -37.09375 C 45.921875 -34.257812 46.078125 -30.007812 46.078125 -24.34375 C 46.078125 -19.394531 45.96875 -15.585938 45.75 -12.921875 C 45.539062 -10.253906 45.015625 -8.046875 44.171875 -6.296875 C 43.222656 -4.316406 41.769531 -2.804688 39.8125 -1.765625 C 37.851562 -0.734375 35.128906 -0.0507812 31.640625 0.28125 Z M 24.703125 0.5625 C 17.816406 0.5625 12.863281 -0.191406 9.84375 -1.703125 C 8.28125 -2.453125 7.050781 -3.460938 6.15625 -4.734375 C 5.257812 -6.015625 4.597656 -7.597656 4.171875 -9.484375 C 3.796875 -11.140625 3.5625 -13.039062 3.46875 -15.1875 C 3.375 -17.332031 3.328125 -20.382812 3.328125 -24.34375 C 3.328125 -29.300781 3.429688 -33.097656 3.640625 -35.734375 C 3.859375 -38.378906 4.390625 -40.597656 5.234375 -42.390625 C 6.179688 -44.328125 7.617188 -45.816406 9.546875 -46.859375 C 11.484375 -47.898438 14.222656 -48.609375 17.765625 -48.984375 L 17.765625 -24.34375 C 17.765625 -21.5625 17.8125 -18.894531 17.90625 -16.34375 C 18 -14.414062 18.242188 -13.003906 18.640625 -12.109375 C 19.046875 -11.210938 19.722656 -10.691406 20.671875 -10.546875 C 21.472656 -10.359375 22.816406 -10.265625 24.703125 -10.265625 C 26.640625 -10.265625 27.960938 -10.332031 28.671875 -10.46875 L 28.671875 0.5 C 28.242188 0.539062 27.601562 0.5625 26.75 0.5625 Z M 24.703125 0.5625 "/></g></g><g style="fill:#204188;fill-opacity:1;"><g transform="translate(315.35657, 171.760045)"><path style="stroke:none" d="M 4.59375 -48.703125 L 18.75 -48.703125 L 18.75 0 L 4.59375 0 Z M 21.734375 -25.984375 L 23.421875 -25.984375 C 24.929688 -25.984375 26.050781 -26.039062 26.78125 -26.15625 C 27.519531 -26.269531 28.101562 -26.539062 28.53125 -26.96875 C 28.945312 -27.34375 29.210938 -27.894531 29.328125 -28.625 C 29.453125 -29.363281 29.515625 -30.460938 29.515625 -31.921875 C 29.515625 -33.378906 29.453125 -34.472656 29.328125 -35.203125 C 29.210938 -35.941406 28.945312 -36.523438 28.53125 -36.953125 C 28.101562 -37.328125 27.507812 -37.570312 26.75 -37.6875 C 26 -37.8125 24.890625 -37.875 23.421875 -37.875 L 21.734375 -37.875 L 21.734375 -48.703125 L 27.609375 -48.703125 C 31.097656 -48.703125 33.9375 -48.359375 36.125 -47.671875 C 38.320312 -46.984375 39.988281 -45.929688 41.125 -44.515625 C 42.207031 -43.203125 42.9375 -41.539062 43.3125 -39.53125 C 43.695312 -37.519531 43.890625 -34.984375 43.890625 -31.921875 C 43.890625 -28.992188 43.710938 -26.5625 43.359375 -24.625 C 43.003906 -22.695312 42.304688 -21.070312 41.265625 -19.75 C 40.085938 -18.238281 38.398438 -17.09375 36.203125 -16.3125 C 34.003906 -15.53125 31.140625 -15.140625 27.609375 -15.140625 L 21.734375 -15.140625 Z M 21.734375 -25.984375 "/></g></g><g style="fill:#204188;fill-opacity:1;"><g transform="translate(116.417173, 213.147701)"><path style="stroke:none" d="M 1.890625 -24.734375 L 8.046875 -24.734375 L 8.046875 0 L 1.890625 0 Z M 1.890625 -24.734375 "/></g></g><g style="fill:#204188;fill-opacity:1;"><g transform="translate(126.368256, 213.147701)"><path style="stroke:none" d="M 1.890625 -24.734375 L 8.046875 -24.734375 L 8.046875 -19.9375 L 1.890625 -19.9375 Z M 1.890625 -16.96875 L 8.046875 -16.96875 L 8.046875 0 L 1.890625 0 Z M 1.890625 -16.96875 "/></g></g><g style="fill:#204188;fill-opacity:1;"><g transform="translate(136.31934, 213.147701)"><path style="stroke:none" d="M 11.515625 -8.015625 C 11.515625 -9.191406 11.503906 -9.96875 11.484375 -10.34375 C 11.441406 -10.96875 11.382812 -11.378906 11.3125 -11.578125 C 11.226562 -11.804688 11.070312 -11.945312 10.84375 -12 C 10.625 -12.050781 10.269531 -12.078125 9.78125 -12.078125 L 9.453125 -12.078125 L 9.453125 -16.234375 C 10.316406 -16.878906 11.445312 -17.203125 12.84375 -17.203125 C 14.84375 -17.203125 16.1875 -16.59375 16.875 -15.375 C 17.1875 -14.84375 17.394531 -14.191406 17.5 -13.421875 C 17.613281 -12.660156 17.671875 -11.722656 17.671875 -10.609375 L 17.671875 0 L 11.515625 0 Z M 1.890625 -16.96875 L 8.046875 -16.96875 L 8.046875 0 L 1.890625 0 Z M 1.890625 -16.96875 "/></g></g><g style="fill:#204188;fill-opacity:1;"><g transform="translate(155.888689, 213.147701)"><path style="stroke:none" d="M 1.890625 -24.734375 L 8.046875 -24.734375 L 8.046875 0 L 1.890625 0 Z M 11.515625 -8.015625 C 11.515625 -9.191406 11.503906 -9.96875 11.484375 -10.34375 C 11.441406 -10.96875 11.382812 -11.378906 11.3125 -11.578125 C 11.226562 -11.804688 11.070312 -11.945312 10.84375 -12 C 10.625 -12.050781 10.269531 -12.078125 9.78125 -12.078125 L 9.453125 -12.078125 L 9.453125 -16.140625 C 10.335938 -16.847656 11.46875 -17.203125 12.84375 -17.203125 C 14.84375 -17.203125 16.1875 -16.59375 16.875 -15.375 C 17.1875 -14.84375 17.394531 -14.191406 17.5 -13.421875 C 17.613281 -12.660156 17.671875 -11.722656 17.671875 -10.609375 L 17.671875 0 L 11.515625 0 Z M 11.515625 -8.015625 "/></g></g><g style="fill:#204188;fill-opacity:1;"><g transform="translate(175.458039, 213.147701)"><path style="stroke:none" d=""/></g></g><g style="fill:#204188;fill-opacity:1;"><g transform="translate(184.111157, 213.147701)"><path style="stroke:none" d="M 1.890625 -24.734375 L 8.046875 -24.734375 L 8.046875 0 L 1.890625 0 Z M 9.453125 -4.859375 L 9.453125 -11.921875 L 12.34375 -16.96875 L 18.84375 -16.96875 L 13.84375 -8.921875 L 18.9375 0 L 12.21875 0 Z M 9.453125 -4.859375 "/></g></g><g style="fill:#204188;fill-opacity:1;"><g transform="translate(203.281131, 213.147701)"><path style="stroke:none" d="M 1.890625 -24.734375 L 8.046875 -24.734375 L 8.046875 -19.9375 L 1.890625 -19.9375 Z M 1.890625 -16.96875 L 8.046875 -16.96875 L 8.046875 0 L 1.890625 0 Z M 1.890625 -16.96875 "/></g></g><g style="fill:#204188;fill-opacity:1;"><g transform="translate(213.232214, 213.147701)"><path style="stroke:none" d="M 8.921875 -10.15625 L 11.25 -10.15625 C 11.25 -11.394531 11.128906 -12.191406 10.890625 -12.546875 C 10.753906 -12.742188 10.570312 -12.867188 10.34375 -12.921875 C 10.125 -12.984375 9.804688 -13.015625 9.390625 -13.015625 L 8.921875 -13.015625 L 8.921875 -17.234375 L 9.390625 -17.234375 C 11.296875 -17.234375 12.765625 -17.078125 13.796875 -16.765625 C 14.828125 -16.460938 15.585938 -15.957031 16.078125 -15.25 C 16.515625 -14.625 16.785156 -13.820312 16.890625 -12.84375 C 16.992188 -11.863281 17.046875 -10.398438 17.046875 -8.453125 L 17.046875 -7.125 L 8.921875 -7.125 Z M 10.046875 0.265625 C 8.003906 0.265625 6.398438 0.09375 5.234375 -0.25 C 4.078125 -0.59375 3.207031 -1.140625 2.625 -1.890625 C 2.113281 -2.554688 1.78125 -3.382812 1.625 -4.375 C 1.46875 -5.363281 1.390625 -6.722656 1.390625 -8.453125 C 1.390625 -10.046875 1.445312 -11.3125 1.5625 -12.25 C 1.675781 -13.195312 1.910156 -14.003906 2.265625 -14.671875 C 2.660156 -15.410156 3.273438 -15.984375 4.109375 -16.390625 C 4.941406 -16.796875 6.078125 -17.054688 7.515625 -17.171875 L 7.515625 -7.125 C 7.515625 -6.363281 7.546875 -5.820312 7.609375 -5.5 C 7.679688 -5.1875 7.84375 -4.953125 8.09375 -4.796875 C 8.351562 -4.617188 8.757812 -4.519531 9.3125 -4.5 C 10.03125 -4.445312 10.785156 -4.421875 11.578125 -4.421875 C 13.003906 -4.421875 14.035156 -4.457031 14.671875 -4.53125 L 16.375 -4.65625 L 16.375 -0.359375 C 15.488281 -0.0976562 14.269531 0.078125 12.71875 0.171875 C 11.957031 0.234375 11.066406 0.265625 10.046875 0.265625 Z M 6.890625 2.625 L 11.984375 2.625 L 11.984375 6.59375 L 6.890625 6.59375 Z M 3.6875 -20.109375 L 6.71875 -24.734375 L 12.546875 -24.734375 L 15.578125 -20.109375 L 15.578125 -19.828125 L 11.484375 -19.828125 L 9.609375 -22.328125 L 7.78125 -19.828125 L 3.6875 -19.828125 Z M 3.6875 -20.109375 "/></g></g><g style="fill:#204188;fill-opacity:1;"><g transform="translate(231.769845, 213.147701)"><path style="stroke:none" d="M 11.515625 -8.015625 C 11.515625 -9.191406 11.503906 -9.96875 11.484375 -10.34375 C 11.441406 -10.96875 11.382812 -11.378906 11.3125 -11.578125 C 11.226562 -11.804688 11.070312 -11.945312 10.84375 -12 C 10.625 -12.050781 10.269531 -12.078125 9.78125 -12.078125 L 9.453125 -12.078125 L 9.453125 -16.234375 C 10.316406 -16.878906 11.445312 -17.203125 12.84375 -17.203125 C 14.84375 -17.203125 16.1875 -16.59375 16.875 -15.375 C 17.1875 -14.84375 17.394531 -14.191406 17.5 -13.421875 C 17.613281 -12.660156 17.671875 -11.722656 17.671875 -10.609375 L 17.671875 0 L 11.515625 0 Z M 1.890625 -16.96875 L 8.046875 -16.96875 L 8.046875 0 L 1.890625 0 Z M 1.890625 -16.96875 "/></g></g><g style="fill:#204188;fill-opacity:1;"><g transform="translate(251.339195, 213.147701)"><path style="stroke:none" d=""/></g></g><g style="fill:#204188;fill-opacity:1;"><g transform="translate(259.992312, 213.147701)"><path style="stroke:none" d="M 19.171875 -17.90625 L 17.34375 -17.90625 L 17.34375 0 L 11.1875 0 L 11.1875 -17.90625 L 7.15625 -17.90625 L 7.15625 -22.859375 L 11.1875 -22.859375 L 11.1875 -24.734375 L 17.34375 -24.734375 L 17.34375 -22.859375 L 19.171875 -22.859375 Z M 2.59375 -15.28125 C 3.351562 -16.5625 4.617188 -17.203125 6.390625 -17.203125 C 7.191406 -17.203125 7.847656 -17.140625 8.359375 -17.015625 C 8.867188 -16.898438 9.34375 -16.664062 9.78125 -16.3125 L 9.78125 -12.078125 L 9.421875 -12.078125 C 8.929688 -12.078125 8.578125 -12.050781 8.359375 -12 C 8.148438 -11.945312 7.992188 -11.816406 7.890625 -11.609375 C 7.773438 -11.367188 7.707031 -11.015625 7.6875 -10.546875 C 7.664062 -10.210938 7.65625 -9.523438 7.65625 -8.484375 C 7.65625 -7.441406 7.664062 -6.753906 7.6875 -6.421875 C 7.707031 -5.953125 7.769531 -5.601562 7.875 -5.375 C 7.988281 -5.144531 8.171875 -5.003906 8.421875 -4.953125 C 8.734375 -4.910156 9.066406 -4.890625 9.421875 -4.890625 L 9.78125 -4.890625 L 9.78125 -0.671875 C 9.34375 -0.335938 8.847656 -0.101562 8.296875 0.03125 C 7.753906 0.164062 7.117188 0.234375 6.390625 0.234375 C 5.503906 0.234375 4.742188 0.09375 4.109375 -0.1875 C 3.472656 -0.476562 2.96875 -0.945312 2.59375 -1.59375 C 2.175781 -2.257812 1.867188 -3.144531 1.671875 -4.25 C 1.484375 -5.363281 1.390625 -6.753906 1.390625 -8.421875 C 1.390625 -11.679688 1.789062 -13.96875 2.59375 -15.28125 Z M 2.59375 -15.28125 "/></g></g><g style="fill:#204188;fill-opacity:1;"><g transform="translate(279.228845, 213.147701)"><path style="stroke:none" d="M 1.890625 -24.734375 L 8.046875 -24.734375 L 8.046875 -19.9375 L 1.890625 -19.9375 Z M 1.890625 -16.96875 L 8.046875 -16.96875 L 8.046875 0 L 1.890625 0 Z M 1.890625 -16.96875 "/></g></g><g style="fill:#204188;fill-opacity:1;"><g transform="translate(289.179929, 213.147701)"><path style="stroke:none" d="M 8.921875 -10.15625 L 11.25 -10.15625 C 11.25 -11.394531 11.128906 -12.191406 10.890625 -12.546875 C 10.753906 -12.742188 10.570312 -12.867188 10.34375 -12.921875 C 10.125 -12.984375 9.804688 -13.015625 9.390625 -13.015625 L 8.921875 -13.015625 L 8.921875 -17.234375 L 9.390625 -17.234375 C 11.296875 -17.234375 12.765625 -17.078125 13.796875 -16.765625 C 14.828125 -16.460938 15.585938 -15.957031 16.078125 -15.25 C 16.515625 -14.625 16.785156 -13.820312 16.890625 -12.84375 C 16.992188 -11.863281 17.046875 -10.398438 17.046875 -8.453125 L 17.046875 -7.125 L 8.921875 -7.125 Z M 10.046875 0.265625 C 8.003906 0.265625 6.398438 0.09375 5.234375 -0.25 C 4.078125 -0.59375 3.207031 -1.140625 2.625 -1.890625 C 2.113281 -2.554688 1.78125 -3.382812 1.625 -4.375 C 1.46875 -5.363281 1.390625 -6.722656 1.390625 -8.453125 C 1.390625 -10.046875 1.445312 -11.3125 1.5625 -12.25 C 1.675781 -13.195312 1.910156 -14.003906 2.265625 -14.671875 C 2.660156 -15.410156 3.273438 -15.984375 4.109375 -16.390625 C 4.941406 -16.796875 6.078125 -17.054688 7.515625 -17.171875 L 7.515625 -7.125 C 7.515625 -6.363281 7.546875 -5.820312 7.609375 -5.5 C 7.679688 -5.1875 7.84375 -4.953125 8.09375 -4.796875 C 8.351562 -4.617188 8.757812 -4.519531 9.3125 -4.5 C 10.03125 -4.445312 10.785156 -4.421875 11.578125 -4.421875 C 13.003906 -4.421875 14.035156 -4.457031 14.671875 -4.53125 L 16.375 -4.65625 L 16.375 -0.359375 C 15.488281 -0.0976562 14.269531 0.078125 12.71875 0.171875 C 11.957031 0.234375 11.066406 0.265625 10.046875 0.265625 Z M 6.890625 2.625 L 11.984375 2.625 L 11.984375 6.59375 L 6.890625 6.59375 Z M 3.6875 -20.109375 L 6.71875 -24.734375 L 12.546875 -24.734375 L 15.578125 -20.109375 L 15.578125 -19.828125 L 11.484375 -19.828125 L 9.609375 -22.328125 L 7.78125 -19.828125 L 3.6875 -19.828125 Z M 3.6875 -20.109375 "/></g></g><g style="fill:#204188;fill-opacity:1;"><g transform="translate(307.71756, 213.147701)"><path style="stroke:none" d="M 11.515625 -8.015625 C 11.515625 -9.191406 11.503906 -9.96875 11.484375 -10.34375 C 11.441406 -10.96875 11.382812 -11.378906 11.3125 -11.578125 C 11.226562 -11.804688 11.070312 -11.945312 10.84375 -12 C 10.625 -12.050781 10.269531 -12.078125 9.78125 -12.078125 L 9.453125 -12.078125 L 9.453125 -16.234375 C 10.316406 -16.878906 11.445312 -17.203125 12.84375 -17.203125 C 14.84375 -17.203125 16.1875 -16.59375 16.875 -15.375 C 17.1875 -14.84375 17.394531 -14.191406 17.5 -13.421875 C 17.613281 -12.660156 17.671875 -11.722656 17.671875 -10.609375 L 17.671875 0 L 11.515625 0 Z M 1.890625 -16.96875 L 8.046875 -16.96875 L 8.046875 0 L 1.890625 0 Z M 1.890625 -16.96875 "/></g></g><g style="fill:#204188;fill-opacity:1;"><g transform="translate(327.286909, 213.147701)"><path style="stroke:none" d=""/></g></g><g style="fill:#204188;fill-opacity:1;"><g transform="translate(335.940015, 213.147701)"><path style="stroke:none" d="M 0.59375 -16.96875 L 3.734375 -16.96875 L 3.734375 -21.90625 L 9.890625 -21.90625 L 9.890625 -16.96875 L 13.609375 -16.96875 L 13.609375 -12.28125 L 0.59375 -12.28125 Z M 3.734375 -10.953125 L 9.890625 -10.953125 L 9.890625 0 L 3.734375 0 Z M 3.734375 -10.953125 "/></g></g><g style="fill:#204188;fill-opacity:1;"><g transform="translate(350.151105, 213.147701)"><path style="stroke:none" d="M 23.203125 -18.734375 C 23.203125 -17.910156 23.132812 -17.210938 23 -16.640625 C 22.863281 -16.066406 22.617188 -15.566406 22.265625 -15.140625 C 21.847656 -14.648438 21.289062 -14.289062 20.59375 -14.0625 C 19.90625 -13.832031 19.007812 -13.71875 17.90625 -13.71875 L 17.609375 -13.71875 L 17.609375 0 L 11.453125 0 L 11.453125 -16.96875 L 17.90625 -16.96875 C 18.707031 -16.96875 19.25 -17.132812 19.53125 -17.46875 C 19.644531 -17.601562 19.710938 -17.765625 19.734375 -17.953125 C 19.753906 -18.140625 19.765625 -18.398438 19.765625 -18.734375 Z M 8.21875 -5.421875 C 8.3125 -5.179688 8.457031 -5.03125 8.65625 -4.96875 C 8.851562 -4.914062 9.207031 -4.890625 9.71875 -4.890625 L 10.046875 -4.890625 L 10.046875 -0.734375 C 9.179688 -0.0859375 8.050781 0.234375 6.65625 0.234375 C 4.65625 0.234375 3.3125 -0.375 2.625 -1.59375 C 2.3125 -2.125 2.097656 -2.769531 1.984375 -3.53125 C 1.878906 -4.300781 1.828125 -5.242188 1.828125 -6.359375 L 1.828125 -16.96875 L 7.984375 -16.96875 L 7.984375 -8.953125 C 7.984375 -7.773438 7.992188 -7 8.015625 -6.625 C 8.066406 -6.070312 8.132812 -5.671875 8.21875 -5.421875 Z M 8.78125 -20.40625 C 8.78125 -20.800781 8.859375 -21.09375 9.015625 -21.28125 C 9.171875 -21.46875 9.523438 -21.785156 10.078125 -22.234375 C 10.347656 -22.429688 10.523438 -22.601562 10.609375 -22.75 C 10.703125 -22.894531 10.75 -23.125 10.75 -23.4375 C 10.75 -23.789062 10.679688 -24.039062 10.546875 -24.1875 C 10.421875 -24.34375 10.195312 -24.441406 9.875 -24.484375 C 9.550781 -24.535156 9.035156 -24.5625 8.328125 -24.5625 L 8.328125 -27.828125 C 10.097656 -27.867188 11.359375 -27.769531 12.109375 -27.53125 C 13.378906 -27.125 14.015625 -26.101562 14.015625 -24.46875 C 14.015625 -23.75 13.976562 -23.210938 13.90625 -22.859375 C 13.84375 -22.503906 13.734375 -22.207031 13.578125 -21.96875 C 13.441406 -21.789062 13.257812 -21.597656 13.03125 -21.390625 C 12.800781 -21.191406 12.640625 -21.0625 12.546875 -21 C 12.523438 -20.976562 12.453125 -20.914062 12.328125 -20.8125 C 12.210938 -20.71875 12.117188 -20.609375 12.046875 -20.484375 C 11.984375 -20.359375 11.953125 -20.234375 11.953125 -20.109375 L 11.953125 -18.96875 L 8.78125 -18.96875 Z M 8.78125 -20.40625 "/></g></g><path style=" stroke:none;fill-rule:nonzero;fill:#3598db;fill-opacity:1;" d="M 34.863281 162.835938 L 31.324219 162.835938 L 43.015625 146.074219 L 46.078125 143.460938 C 46.734375 143.640625 47.417969 143.816406 48.101562 143.9375 C 49.261719 144.144531 50.332031 144.589844 51.316406 145.273438 L 51.464844 145.394531 L 38.105469 164.46875 C 37.929688 164.230469 37.691406 163.992188 37.453125 163.785156 C 37.214844 163.578125 36.945312 163.398438 36.679688 163.28125 C 36.410156 163.132812 36.113281 163.042969 35.785156 162.953125 C 35.488281 162.863281 35.191406 162.835938 34.863281 162.835938 Z M 34.863281 162.835938 "/><path style=" stroke:none;fill-rule:nonzero;fill:#3598db;fill-opacity:1;" d="M 73.386719 218.609375 L 66.574219 228.355469 C 66.367188 228.652344 66.128906 228.949219 65.921875 229.214844 C 65.683594 229.484375 65.445312 229.75 65.175781 230.019531 C 64.910156 230.253906 64.640625 230.523438 64.34375 230.730469 C 64.046875 230.96875 63.75 231.175781 63.453125 231.355469 C 63.152344 231.5625 62.828125 231.742188 62.5 231.890625 C 62.171875 232.066406 61.84375 232.214844 61.488281 232.335938 C 61.160156 232.453125 60.804688 232.574219 60.445312 232.691406 C 60.089844 232.78125 59.734375 232.871094 59.375 232.929688 C 59.019531 232.988281 58.664062 233.046875 58.304688 233.078125 C 57.949219 233.109375 57.589844 233.109375 57.203125 233.109375 C 56.847656 233.109375 56.492188 233.078125 56.105469 233.019531 C 55.746094 232.988281 55.390625 232.929688 55.03125 232.839844 C 54.675781 232.75 54.320312 232.664062 53.992188 232.542969 C 53.636719 232.425781 53.308594 232.304688 52.980469 232.15625 C 52.652344 232.007812 52.324219 231.859375 52 231.683594 C 51.671875 231.503906 51.375 231.324219 51.078125 231.085938 L 39.089844 222.738281 C 39 222.679688 38.941406 222.589844 38.878906 222.46875 C 38.820312 222.351562 38.820312 222.261719 38.851562 222.144531 C 38.878906 222.023438 38.878906 221.875 38.910156 221.757812 L 39 220.804688 L 39.652344 221.371094 C 40.335938 221.964844 41.109375 222.292969 42.003906 222.382812 C 42.597656 222.441406 43.164062 222.351562 43.730469 222.144531 C 44.292969 221.9375 44.769531 221.636719 45.1875 221.191406 L 50.125 216.261719 L 58.898438 222.441406 C 59.078125 222.558594 59.257812 222.648438 59.4375 222.738281 C 59.613281 222.828125 59.824219 222.886719 60.03125 222.945312 C 60.238281 222.976562 60.445312 223.003906 60.65625 223.003906 C 60.863281 223.003906 61.070312 223.003906 61.28125 222.945312 C 61.488281 222.917969 61.695312 222.855469 61.875 222.769531 C 62.082031 222.679688 62.261719 222.589844 62.441406 222.46875 C 62.617188 222.351562 62.765625 222.234375 62.945312 222.085938 C 63.09375 221.9375 63.242188 221.789062 63.363281 221.609375 L 69.847656 212.308594 C 70.085938 212.902344 69.132812 215.191406 69.402344 215.785156 C 70.144531 217.449219 72.285156 217.210938 73.386719 218.609375 Z M 73.386719 218.609375 "/><path style=" stroke:none;fill-rule:nonzero;fill:#204188;fill-opacity:1;" d="M 55.804688 187.199219 L 55.804688 201.105469 C 55.804688 201.164062 55.804688 201.253906 55.777344 201.3125 C 55.746094 201.375 55.71875 201.433594 55.65625 201.492188 C 55.597656 201.550781 55.570312 201.582031 55.480469 201.613281 C 55.417969 201.640625 55.359375 201.671875 55.269531 201.671875 L 49.617188 202.144531 C 49.410156 202.742188 49.171875 203.304688 48.90625 203.871094 L 52.59375 208.207031 C 52.625 208.265625 52.683594 208.328125 52.683594 208.386719 C 52.710938 208.445312 52.710938 208.503906 52.710938 208.59375 C 52.710938 208.652344 52.683594 208.742188 52.652344 208.800781 C 52.625 208.863281 52.59375 208.921875 52.535156 208.980469 L 42.65625 218.816406 C 42.597656 218.875 42.539062 218.90625 42.480469 218.933594 C 42.421875 218.964844 42.359375 218.964844 42.269531 218.992188 C 42.210938 218.992188 42.121094 218.992188 42.0625 218.964844 C 42.003906 218.933594 41.945312 218.90625 41.882812 218.875 L 37.542969 215.21875 C 36.976562 215.488281 36.410156 215.726562 35.816406 215.933594 L 35.339844 221.578125 C 35.339844 221.636719 35.308594 221.726562 35.28125 221.789062 C 35.25 221.847656 35.222656 221.90625 35.160156 221.964844 C 35.101562 222.023438 35.042969 222.054688 34.984375 222.085938 C 34.921875 222.113281 34.863281 222.113281 34.773438 222.113281 L 20.914062 222.113281 C 20.851562 222.113281 20.765625 222.113281 20.703125 222.085938 C 20.644531 222.054688 20.585938 222.023438 20.527344 221.964844 C 20.464844 221.90625 20.4375 221.875 20.40625 221.789062 C 20.378906 221.726562 20.347656 221.667969 20.347656 221.578125 L 19.871094 215.933594 C 19.277344 215.726562 18.710938 215.488281 18.144531 215.21875 L 13.832031 218.816406 C 13.773438 218.875 13.714844 218.90625 13.652344 218.90625 C 13.59375 218.933594 13.535156 218.933594 13.445312 218.933594 C 13.386719 218.933594 13.296875 218.90625 13.238281 218.875 C 13.179688 218.84375 13.117188 218.816406 13.058594 218.757812 L 3.242188 208.949219 C 3.183594 208.890625 3.152344 208.832031 3.125 208.773438 C 3.09375 208.714844 3.0625 208.652344 3.0625 208.566406 C 3.0625 208.503906 3.0625 208.414062 3.09375 208.355469 C 3.125 208.296875 3.152344 208.238281 3.183594 208.179688 L 6.871094 203.839844 C 6.605469 203.273438 6.367188 202.710938 6.15625 202.117188 L 0.476562 201.640625 C 0.417969 201.640625 0.328125 201.613281 0.269531 201.582031 C 0.207031 201.550781 0.148438 201.523438 0.117188 201.460938 C 0.0585938 201.402344 0.03125 201.34375 0 201.285156 C 0 201.253906 0 201.195312 0 201.136719 L 0 187.230469 C 0 187.171875 0 187.082031 0.03125 187.023438 C 0.0585938 186.960938 0.0898438 186.902344 0.148438 186.84375 C 0.207031 186.785156 0.238281 186.753906 0.296875 186.726562 C 0.355469 186.695312 0.417969 186.664062 0.503906 186.664062 L 6.15625 186.191406 C 6.367188 185.59375 6.605469 185.03125 6.871094 184.464844 L 3.183594 180.128906 C 3.125 180.070312 3.09375 180.007812 3.09375 179.949219 C 3.0625 179.890625 3.0625 179.832031 3.0625 179.742188 C 3.0625 179.683594 3.09375 179.59375 3.125 179.535156 C 3.152344 179.472656 3.183594 179.414062 3.242188 179.355469 L 13.089844 169.550781 C 13.148438 169.492188 13.207031 169.460938 13.265625 169.429688 C 13.328125 169.402344 13.386719 169.402344 13.476562 169.371094 C 13.535156 169.371094 13.625 169.371094 13.683594 169.402344 C 13.742188 169.429688 13.804688 169.460938 13.863281 169.492188 L 18.207031 173.144531 C 18.769531 172.878906 19.335938 172.640625 19.929688 172.433594 L 20.40625 166.785156 C 20.40625 166.726562 20.4375 166.636719 20.464844 166.578125 C 20.496094 166.519531 20.527344 166.460938 20.585938 166.402344 C 20.644531 166.339844 20.703125 166.3125 20.765625 166.28125 C 20.824219 166.25 20.882812 166.25 20.972656 166.25 L 34.921875 166.25 C 34.984375 166.25 35.074219 166.25 35.132812 166.28125 C 35.191406 166.3125 35.25 166.339844 35.308594 166.402344 C 35.371094 166.460938 35.398438 166.488281 35.429688 166.578125 C 35.460938 166.636719 35.488281 166.699219 35.488281 166.785156 L 35.964844 172.433594 C 36.558594 172.640625 37.125 172.878906 37.691406 173.144531 L 41.945312 169.519531 C 42.003906 169.460938 42.0625 169.429688 42.121094 169.429688 C 42.183594 169.402344 42.242188 169.402344 42.332031 169.402344 C 42.390625 169.402344 42.480469 169.429688 42.539062 169.460938 C 42.597656 169.492188 42.65625 169.519531 42.71875 169.578125 L 52.5625 179.414062 C 52.625 179.472656 52.652344 179.535156 52.683594 179.59375 C 52.710938 179.652344 52.710938 179.710938 52.742188 179.800781 C 52.742188 179.859375 52.742188 179.949219 52.710938 180.007812 C 52.683594 180.070312 52.652344 180.128906 52.625 180.1875 L 48.933594 184.527344 C 49.203125 185.089844 49.441406 185.65625 49.648438 186.25 L 55.300781 186.726562 C 55.359375 186.726562 55.417969 186.753906 55.507812 186.785156 C 55.570312 186.8125 55.628906 186.84375 55.65625 186.902344 C 55.71875 186.960938 55.746094 187.023438 55.777344 187.082031 C 55.777344 187.082031 55.804688 187.140625 55.804688 187.199219 Z M 27.902344 178.792969 C 27.398438 178.792969 26.890625 178.820312 26.386719 178.851562 C 25.878906 178.910156 25.375 178.96875 24.898438 179.058594 C 24.394531 179.148438 23.917969 179.265625 23.441406 179.414062 C 22.964844 179.5625 22.488281 179.742188 22.011719 179.921875 C 21.539062 180.128906 21.089844 180.335938 20.644531 180.574219 C 20.199219 180.8125 19.78125 181.078125 19.335938 181.347656 C 18.917969 181.613281 18.503906 181.910156 18.117188 182.238281 C 17.730469 182.566406 17.34375 182.890625 16.984375 183.25 C 16.628906 183.605469 16.300781 183.992188 15.972656 184.378906 C 15.648438 184.761719 15.351562 185.179688 15.082031 185.59375 C 14.8125 186.011719 14.546875 186.457031 14.308594 186.902344 C 14.070312 187.347656 13.863281 187.792969 13.652344 188.269531 C 13.445312 188.746094 13.296875 189.21875 13.148438 189.695312 C 13 190.171875 12.878906 190.675781 12.792969 191.152344 C 12.703125 191.65625 12.613281 192.132812 12.582031 192.636719 C 12.523438 193.144531 12.523438 193.648438 12.523438 194.152344 C 12.523438 194.660156 12.554688 195.164062 12.582031 195.667969 C 12.644531 196.171875 12.703125 196.679688 12.792969 197.15625 C 12.878906 197.660156 13 198.136719 13.148438 198.609375 C 13.296875 199.085938 13.476562 199.5625 13.652344 200.035156 C 13.863281 200.511719 14.070312 200.957031 14.308594 201.402344 C 14.546875 201.847656 14.8125 202.265625 15.082031 202.679688 C 15.351562 203.097656 15.675781 203.511719 15.972656 203.898438 C 16.300781 204.285156 16.628906 204.671875 16.984375 205.027344 C 17.34375 205.386719 17.730469 205.710938 18.117188 206.039062 C 18.503906 206.367188 18.917969 206.664062 19.335938 206.929688 C 19.753906 207.199219 20.199219 207.464844 20.644531 207.703125 C 21.089844 207.941406 21.539062 208.148438 22.011719 208.355469 C 22.488281 208.566406 22.964844 208.714844 23.441406 208.863281 C 23.917969 209.011719 24.421875 209.128906 24.898438 209.21875 C 25.375 209.308594 25.878906 209.394531 26.386719 209.425781 C 26.890625 209.484375 27.398438 209.484375 27.902344 209.484375 C 28.410156 209.484375 28.914062 209.457031 29.421875 209.425781 C 29.925781 209.367188 30.433594 209.308594 30.90625 209.21875 C 31.414062 209.128906 31.890625 209.011719 32.367188 208.863281 C 32.839844 208.714844 33.316406 208.535156 33.792969 208.355469 C 34.269531 208.148438 34.714844 207.941406 35.160156 207.703125 C 35.609375 207.464844 36.023438 207.199219 36.46875 206.929688 C 36.886719 206.664062 37.304688 206.367188 37.691406 206.039062 C 38.078125 205.710938 38.464844 205.386719 38.820312 205.027344 C 39.175781 204.671875 39.503906 204.285156 39.832031 203.898438 C 40.160156 203.511719 40.457031 203.097656 40.722656 202.679688 C 40.992188 202.265625 41.261719 201.820312 41.496094 201.375 C 41.734375 200.929688 41.945312 200.480469 42.152344 200.007812 C 42.332031 199.53125 42.507812 199.054688 42.65625 198.582031 C 42.808594 198.105469 42.925781 197.601562 43.015625 197.125 C 43.105469 196.621094 43.195312 196.144531 43.222656 195.640625 C 43.28125 195.132812 43.28125 194.628906 43.28125 194.125 C 43.28125 193.617188 43.253906 193.113281 43.222656 192.609375 C 43.164062 192.101562 43.105469 191.597656 43.015625 191.121094 C 42.925781 190.617188 42.808594 190.140625 42.65625 189.667969 C 42.507812 189.191406 42.332031 188.714844 42.152344 188.238281 C 41.972656 187.765625 41.734375 187.320312 41.496094 186.875 C 41.261719 186.425781 40.992188 186.011719 40.722656 185.566406 C 40.457031 185.121094 40.160156 184.734375 39.832031 184.347656 C 39.503906 183.960938 39.175781 183.574219 38.820312 183.21875 C 38.464844 182.863281 38.078125 182.535156 37.691406 182.207031 C 37.304688 181.882812 36.886719 181.585938 36.46875 181.316406 C 36.054688 181.050781 35.609375 180.78125 35.160156 180.542969 C 34.714844 180.304688 34.269531 180.097656 33.792969 179.890625 C 33.316406 179.683594 32.839844 179.535156 32.367188 179.386719 C 31.890625 179.238281 31.382812 179.117188 30.90625 179.027344 C 30.402344 178.941406 29.925781 178.851562 29.421875 178.820312 C 28.914062 178.820312 28.410156 178.792969 27.902344 178.792969 Z M 27.902344 178.792969 "/><path style=" stroke:none;fill-rule:nonzero;fill:#ffffff;fill-opacity:1;" d="M 27.902344 212.367188 C 26.714844 212.308594 25.554688 212.160156 24.421875 211.890625 C 23.261719 211.625 22.160156 211.238281 21.089844 210.761719 C 20.019531 210.289062 18.980469 209.695312 18.027344 209.039062 C 17.074219 208.355469 16.152344 207.613281 15.351562 206.75 C 14.933594 206.335938 14.546875 205.890625 14.191406 205.445312 C 13.832031 205 13.476562 204.523438 13.179688 204.046875 C 12.851562 203.574219 12.554688 203.066406 12.285156 202.5625 C 12.019531 202.058594 11.78125 201.523438 11.542969 200.988281 C 11.332031 200.453125 11.125 199.917969 10.976562 199.351562 C 10.796875 198.789062 10.679688 198.222656 10.558594 197.660156 C 10.441406 197.09375 10.351562 196.53125 10.324219 195.9375 C 10.261719 195.371094 10.234375 194.777344 10.234375 194.210938 C 10.234375 193.648438 10.261719 193.054688 10.324219 192.488281 C 10.382812 191.925781 10.472656 191.332031 10.558594 190.765625 C 10.648438 190.203125 10.796875 189.636719 10.976562 189.070312 C 11.15625 188.507812 11.332031 187.972656 11.542969 187.4375 C 11.75 186.902344 12.019531 186.367188 12.285156 185.863281 C 12.554688 185.359375 12.851562 184.851562 13.179688 184.347656 C 13.503906 183.871094 13.832031 183.398438 14.191406 182.949219 C 14.546875 182.503906 14.933594 182.058594 15.351562 181.644531 C 16.183594 180.8125 17.074219 180.039062 18.027344 179.355469 C 18.980469 178.671875 20.019531 178.109375 21.089844 177.632812 C 22.160156 177.15625 23.292969 176.769531 24.421875 176.503906 C 25.582031 176.234375 26.742188 176.058594 27.902344 176.027344 C 25.464844 175.9375 23.113281 176.324219 20.824219 177.1875 C 18.53125 178.078125 16.480469 179.355469 14.726562 181.078125 C 12.941406 182.800781 11.570312 184.792969 10.589844 187.082031 C 10.113281 188.210938 9.757812 189.371094 9.488281 190.585938 C 9.25 191.804688 9.132812 193.023438 9.132812 194.242188 C 9.132812 195.460938 9.25 196.679688 9.488281 197.898438 C 9.726562 199.117188 10.113281 200.273438 10.589844 201.402344 C 11.570312 203.691406 12.941406 205.683594 14.726562 207.433594 C 16.511719 209.160156 18.53125 210.464844 20.824219 211.359375 C 23.113281 212.101562 25.464844 212.488281 27.902344 212.367188 Z M 27.902344 212.367188 "/><g clip-rule="nonzero" clip-path="url(#f16a8ab9f1)"><path style=" stroke:none;fill-rule:nonzero;fill:#204188;fill-opacity:1;" d="M 106.4375 195.042969 C 105.128906 193.558594 103.640625 192.25 102.035156 191.121094 C 99.625 189.457031 96.976562 188.210938 94.152344 187.4375 C 93.4375 187.230469 92.695312 187.082031 91.949219 186.933594 C 90.789062 186.726562 89.71875 186.277344 88.738281 185.59375 C 88.675781 185.566406 88.648438 185.535156 88.589844 185.507812 L 109.113281 156.148438 C 109.234375 155.972656 109.324219 155.792969 109.410156 155.613281 C 109.5 155.4375 109.558594 155.226562 109.621094 155.019531 C 109.679688 154.8125 109.679688 154.605469 109.679688 154.394531 C 109.679688 154.1875 109.679688 153.980469 109.621094 153.773438 C 109.589844 153.5625 109.53125 153.355469 109.441406 153.179688 C 109.351562 152.96875 109.261719 152.792969 109.171875 152.613281 C 109.054688 152.433594 108.9375 152.257812 108.785156 152.109375 C 108.636719 151.960938 108.488281 151.8125 108.3125 151.691406 L 72.109375 126.464844 C 72.046875 125.15625 71.898438 123.878906 71.632812 122.574219 C 71.363281 121.292969 71.039062 120.046875 70.5625 118.796875 C 70.113281 117.582031 69.578125 116.390625 68.953125 115.234375 C 68.332031 114.105469 67.617188 113.003906 66.8125 111.964844 L 67.230469 111.371094 C 67.4375 111.074219 67.675781 110.777344 67.882812 110.507812 C 68.121094 110.242188 68.359375 109.972656 68.628906 109.707031 C 68.894531 109.46875 69.164062 109.199219 69.460938 108.992188 C 69.757812 108.785156 70.054688 108.546875 70.351562 108.371094 C 70.652344 108.160156 70.976562 107.984375 71.304688 107.835938 C 71.632812 107.65625 71.960938 107.507812 72.285156 107.386719 C 72.613281 107.269531 72.972656 107.152344 73.328125 107.03125 C 73.683594 106.914062 74.042969 106.855469 74.398438 106.792969 C 74.753906 106.734375 75.113281 106.675781 75.46875 106.644531 C 75.828125 106.617188 76.183594 106.617188 76.570312 106.617188 C 76.925781 106.617188 77.285156 106.644531 77.671875 106.707031 C 78.027344 106.734375 78.386719 106.792969 78.742188 106.882812 C 79.097656 106.972656 79.457031 107.0625 79.78125 107.179688 C 80.140625 107.300781 80.46875 107.417969 80.792969 107.566406 C 81.121094 107.714844 81.449219 107.863281 81.777344 108.042969 C 82.101562 108.21875 82.402344 108.398438 82.699219 108.605469 L 118.992188 133.894531 C 119.289062 134.101562 119.585938 134.339844 119.851562 134.546875 C 120.121094 134.753906 120.386719 135.023438 120.65625 135.289062 C 120.894531 135.558594 121.160156 135.824219 121.371094 136.121094 C 121.609375 136.417969 121.816406 136.714844 121.996094 137.011719 C 122.203125 137.308594 122.382812 137.636719 122.53125 137.964844 C 122.707031 138.292969 122.859375 138.617188 122.976562 138.945312 C 123.09375 139.273438 123.214844 139.628906 123.332031 139.984375 C 123.421875 140.339844 123.511719 140.699219 123.570312 141.054688 C 123.632812 141.410156 123.691406 141.769531 123.71875 142.125 C 123.75 142.480469 123.75 142.835938 123.75 143.222656 C 123.75 143.582031 123.71875 143.9375 123.660156 144.324219 C 123.632812 144.679688 123.570312 145.035156 123.480469 145.394531 C 123.394531 145.75 123.304688 146.105469 123.183594 146.433594 C 123.066406 146.789062 122.945312 147.117188 122.796875 147.441406 C 122.648438 147.769531 122.5 148.097656 122.320312 148.421875 C 122.144531 148.75 121.964844 149.046875 121.757812 149.34375 L 97.097656 184.675781 C 99.445312 186.277344 104.503906 190.140625 106.4375 195.042969 Z M 98.109375 125.246094 C 97.808594 125.039062 97.453125 124.832031 97.125 124.683594 C 96.796875 124.535156 96.410156 124.414062 96.054688 124.324219 C 95.699219 124.238281 95.3125 124.207031 94.925781 124.175781 C 94.539062 124.175781 94.179688 124.207031 93.792969 124.265625 C 93.40625 124.324219 93.050781 124.445312 92.695312 124.5625 C 92.335938 124.710938 92.007812 124.859375 91.683594 125.070312 C 91.355469 125.277344 91.058594 125.515625 90.789062 125.78125 C 90.523438 126.050781 90.253906 126.316406 90.046875 126.644531 C 89.835938 126.941406 89.628906 127.296875 89.480469 127.625 C 89.332031 127.980469 89.214844 128.335938 89.125 128.695312 C 89.035156 129.050781 89.003906 129.4375 88.976562 129.824219 C 88.976562 130.207031 89.003906 130.566406 89.0625 130.953125 C 89.125 131.339844 89.242188 131.695312 89.363281 132.050781 C 89.480469 132.40625 89.660156 132.734375 89.867188 133.0625 C 90.074219 133.386719 90.3125 133.683594 90.582031 133.953125 C 90.847656 134.21875 91.117188 134.457031 91.445312 134.695312 C 91.742188 134.902344 92.097656 135.113281 92.425781 135.261719 C 92.78125 135.410156 93.140625 135.527344 93.496094 135.617188 C 93.855469 135.707031 94.242188 135.734375 94.628906 135.765625 C 95.015625 135.765625 95.371094 135.734375 95.757812 135.675781 C 96.144531 135.617188 96.5 135.496094 96.859375 135.378906 C 97.214844 135.230469 97.542969 135.082031 97.871094 134.875 C 98.195312 134.664062 98.496094 134.429688 98.761719 134.160156 C 99.03125 133.894531 99.296875 133.625 99.503906 133.300781 C 99.714844 133.003906 99.921875 132.644531 100.070312 132.320312 C 100.21875 131.960938 100.339844 131.605469 100.429688 131.25 C 100.515625 130.890625 100.546875 130.507812 100.578125 130.121094 C 100.578125 129.734375 100.546875 129.375 100.488281 128.992188 C 100.429688 128.605469 100.308594 128.246094 100.191406 127.890625 C 100.042969 127.535156 99.890625 127.207031 99.683594 126.882812 C 99.476562 126.554688 99.238281 126.257812 98.96875 125.988281 C 98.703125 125.691406 98.433594 125.453125 98.109375 125.246094 Z M 98.109375 125.246094 "/></g><path style=" stroke:none;fill-rule:nonzero;fill:#ffffff;fill-opacity:1;" d="M 119.40625 147.769531 C 120.269531 146.730469 120.804688 145.542969 121.074219 144.203125 C 121.191406 143.519531 121.222656 142.835938 121.191406 142.152344 C 121.132812 141.46875 121.011719 140.785156 120.804688 140.132812 C 120.597656 139.480469 120.300781 138.855469 119.941406 138.292969 C 119.585938 137.695312 119.167969 137.160156 118.664062 136.6875 C 118.542969 136.566406 118.425781 136.449219 118.277344 136.328125 L 117.859375 136.003906 C 117.59375 135.765625 117.324219 135.617188 117.058594 135.410156 L 115.449219 134.28125 L 112.238281 132.082031 C 111.136719 131.367188 110.066406 130.625 108.964844 129.910156 C 106.765625 128.484375 104.5625 127.089844 102.300781 125.78125 C 104.324219 127.445312 106.378906 129.050781 108.488281 130.59375 C 109.53125 131.367188 110.601562 132.140625 111.644531 132.914062 L 114.855469 135.171875 L 116.460938 136.269531 C 116.730469 136.449219 117.027344 136.628906 117.234375 136.835938 L 117.59375 137.101562 C 117.710938 137.191406 117.832031 137.308594 117.949219 137.398438 C 118.871094 138.230469 119.554688 139.242188 120 140.429688 C 120.449219 141.617188 120.625 142.835938 120.539062 144.113281 C 120.449219 145.421875 120.0625 146.640625 119.40625 147.769531 Z M 119.40625 147.769531 "/><g clip-rule="nonzero" clip-path="url(#247ba7701b)"><path style=" stroke:none;fill-rule:nonzero;fill:#f78c02;fill-opacity:1;" d="M 66.246094 138.292969 C 65.832031 139.0625 65.503906 139.894531 65.296875 140.757812 C 65.085938 141.617188 64.96875 142.480469 64.9375 143.371094 C 64.9375 144.261719 65.027344 145.125 65.207031 145.988281 C 65.414062 146.847656 65.683594 147.679688 66.070312 148.484375 L 83.175781 183.871094 C 83.5625 184.675781 84.007812 185.417969 84.574219 186.101562 C 85.136719 186.785156 85.761719 187.40625 86.445312 187.941406 C 87.160156 188.476562 87.902344 188.921875 88.707031 189.308594 C 89.511719 189.667969 90.34375 189.933594 91.234375 190.113281 C 91.683594 190.203125 92.097656 190.289062 92.542969 190.378906 C 92.992188 190.46875 93.40625 190.585938 93.824219 190.734375 C 94.242188 190.855469 94.6875 191.003906 95.101562 191.152344 C 95.519531 191.300781 95.9375 191.480469 96.351562 191.65625 C 96.769531 191.835938 97.15625 192.042969 97.570312 192.222656 C 97.957031 192.429688 98.34375 192.636719 98.730469 192.875 C 99.117188 193.113281 99.503906 193.351562 99.863281 193.589844 C 100.21875 193.828125 100.605469 194.09375 100.964844 194.359375 C 101.320312 194.628906 101.648438 194.925781 102.003906 195.191406 C 102.332031 195.492188 102.660156 195.789062 102.984375 196.085938 C 103.3125 196.410156 103.609375 196.707031 103.910156 197.035156 C 104.207031 197.363281 104.503906 197.6875 104.769531 198.046875 C 105.039062 198.402344 105.304688 198.757812 105.574219 199.117188 C 105.84375 199.472656 106.078125 199.859375 106.316406 200.214844 C 106.554688 200.601562 106.792969 200.988281 107.003906 201.375 C 107.210938 201.761719 107.417969 202.175781 107.597656 202.5625 C 107.777344 202.976562 107.953125 203.363281 108.132812 203.78125 C 108.3125 204.195312 108.460938 204.613281 108.578125 205.027344 C 108.699219 205.445312 108.847656 205.890625 108.964844 206.304688 C 109.085938 206.722656 109.171875 207.167969 109.261719 207.613281 C 109.351562 208.058594 109.441406 208.476562 109.5 208.921875 C 109.558594 209.367188 109.621094 209.8125 109.648438 210.257812 C 109.679688 210.703125 109.710938 211.148438 109.710938 211.59375 C 109.710938 212.039062 109.710938 212.488281 109.710938 212.933594 C 109.679688 213.378906 109.648438 213.824219 109.621094 214.269531 C 109.589844 214.714844 109.53125 215.160156 109.441406 215.605469 C 109.382812 216.050781 109.292969 216.5 109.203125 216.914062 C 109.113281 217.359375 108.996094 217.777344 108.875 218.222656 C 108.757812 218.667969 108.609375 219.082031 108.488281 219.5 C 108.339844 219.914062 108.191406 220.332031 108.011719 220.746094 C 107.835938 221.164062 107.65625 221.578125 107.476562 221.964844 C 107.269531 222.351562 107.089844 222.769531 106.851562 223.152344 L 99.207031 207.375 C 99.03125 207.019531 98.792969 206.722656 98.464844 206.515625 C 98.136719 206.304688 97.78125 206.15625 97.394531 206.128906 L 85.109375 205.058594 C 84.898438 205.027344 84.722656 205.058594 84.511719 205.089844 C 84.304688 205.117188 84.125 205.175781 83.949219 205.265625 C 83.769531 205.355469 83.589844 205.472656 83.441406 205.59375 C 83.292969 205.710938 83.175781 205.859375 83.054688 206.039062 L 76.242188 216.289062 C 76.035156 216.617188 75.914062 216.972656 75.886719 217.359375 C 75.855469 217.746094 75.945312 218.132812 76.09375 218.488281 L 83.769531 234.296875 C 83.324219 234.238281 82.875 234.148438 82.460938 234.058594 C 82.015625 233.96875 81.597656 233.851562 81.152344 233.730469 C 80.734375 233.613281 80.289062 233.464844 79.871094 233.316406 C 79.457031 233.167969 79.039062 233.019531 78.621094 232.839844 C 78.207031 232.664062 77.820312 232.484375 77.402344 232.277344 C 77.015625 232.066406 76.601562 231.859375 76.214844 231.652344 C 75.828125 231.445312 75.441406 231.207031 75.082031 230.96875 C 74.695312 230.730469 74.339844 230.464844 73.980469 230.195312 C 73.625 229.929688 73.269531 229.660156 72.941406 229.363281 C 72.585938 229.066406 72.257812 228.769531 71.929688 228.472656 C 71.601562 228.175781 71.273438 227.847656 70.976562 227.523438 C 70.679688 227.195312 70.382812 226.867188 70.085938 226.511719 C 69.789062 226.15625 69.519531 225.828125 69.253906 225.472656 C 68.984375 225.113281 68.71875 224.757812 68.480469 224.371094 C 68.242188 223.984375 68.003906 223.628906 67.792969 223.242188 C 67.585938 222.855469 67.378906 222.46875 67.171875 222.054688 C 66.960938 221.667969 66.785156 221.253906 66.605469 220.835938 C 66.425781 220.421875 66.277344 220.003906 66.128906 219.589844 C 65.980469 219.171875 65.832031 218.757812 65.710938 218.3125 C 65.59375 217.894531 65.472656 217.449219 65.386719 217.003906 C 65.296875 216.558594 65.207031 216.140625 65.117188 215.695312 C 65.058594 215.25 65 214.804688 64.9375 214.359375 C 64.878906 213.914062 64.851562 213.46875 64.851562 213.023438 C 64.820312 212.574219 64.820312 212.128906 64.820312 211.683594 C 64.820312 211.238281 64.851562 210.792969 64.878906 210.347656 C 64.910156 209.902344 64.96875 209.457031 65.027344 209.011719 C 65.085938 208.566406 65.175781 208.117188 65.265625 207.703125 C 65.355469 207.257812 65.445312 206.839844 65.5625 206.394531 C 65.683594 205.949219 65.800781 205.535156 65.949219 205.117188 C 66.097656 204.703125 66.246094 204.285156 66.398438 203.871094 C 66.546875 203.453125 66.722656 203.039062 66.933594 202.652344 C 67.109375 202.234375 67.320312 201.847656 67.527344 201.460938 C 67.945312 200.691406 68.269531 199.859375 68.480469 198.996094 C 68.6875 198.136719 68.804688 197.273438 68.835938 196.382812 C 68.835938 195.492188 68.746094 194.628906 68.566406 193.765625 C 68.359375 192.90625 68.09375 192.074219 67.707031 191.269531 L 50.601562 155.882812 C 50.214844 155.078125 49.769531 154.335938 49.203125 153.652344 C 48.636719 152.96875 48.011719 152.347656 47.328125 151.8125 C 46.613281 151.277344 45.871094 150.832031 45.066406 150.445312 C 44.265625 150.085938 43.429688 149.820312 42.539062 149.640625 C 42.09375 149.550781 41.675781 149.464844 41.230469 149.375 C 40.785156 149.285156 40.367188 149.167969 39.949219 149.019531 C 39.535156 148.898438 39.089844 148.75 38.671875 148.601562 C 38.253906 148.453125 37.839844 148.273438 37.421875 148.097656 C 37.007812 147.917969 36.621094 147.738281 36.203125 147.53125 C 35.816406 147.324219 35.429688 147.117188 35.042969 146.878906 C 34.65625 146.640625 34.269531 146.402344 33.914062 146.164062 C 33.554688 145.925781 33.167969 145.660156 32.8125 145.394531 C 32.453125 145.125 32.097656 144.828125 31.769531 144.5625 C 31.441406 144.261719 31.117188 143.964844 30.789062 143.667969 C 30.460938 143.371094 30.164062 143.046875 29.867188 142.71875 C 29.570312 142.390625 29.273438 142.066406 29.003906 141.707031 C 28.734375 141.351562 28.46875 140.996094 28.199219 140.636719 C 27.933594 140.28125 27.695312 139.894531 27.457031 139.539062 C 27.21875 139.152344 26.980469 138.765625 26.773438 138.378906 C 26.566406 137.992188 26.355469 137.578125 26.179688 137.191406 C 26 136.777344 25.820312 136.390625 25.640625 135.972656 C 25.464844 135.558594 25.316406 135.140625 25.195312 134.726562 C 25.046875 134.308594 24.929688 133.863281 24.808594 133.449219 C 24.691406 133.03125 24.601562 132.585938 24.511719 132.140625 C 24.421875 131.695312 24.332031 131.277344 24.273438 130.832031 C 24.214844 130.386719 24.15625 129.941406 24.125 129.496094 C 24.09375 129.050781 24.066406 128.605469 24.066406 128.160156 C 24.066406 127.714844 24.066406 127.265625 24.066406 126.820312 C 24.09375 126.375 24.125 125.929688 24.15625 125.484375 C 24.183594 125.039062 24.246094 124.59375 24.332031 124.148438 C 24.394531 123.703125 24.480469 123.253906 24.570312 122.839844 C 24.660156 122.394531 24.78125 121.976562 24.898438 121.53125 C 25.019531 121.117188 25.167969 120.671875 25.285156 120.253906 C 25.433594 119.839844 25.582031 119.421875 25.761719 119.007812 C 25.941406 118.589844 26.117188 118.175781 26.296875 117.789062 C 26.503906 117.402344 26.714844 116.984375 26.921875 116.601562 L 34.566406 132.378906 C 34.746094 132.734375 34.984375 133.03125 35.308594 133.238281 C 35.636719 133.476562 35.996094 133.597656 36.382812 133.625 L 48.667969 134.695312 C 48.875 134.726562 49.054688 134.695312 49.261719 134.664062 C 49.46875 134.636719 49.648438 134.578125 49.828125 134.488281 C 50.003906 134.398438 50.183594 134.28125 50.332031 134.160156 C 50.480469 134.042969 50.601562 133.894531 50.71875 133.714844 L 57.53125 123.464844 C 57.738281 123.136719 57.859375 122.78125 57.890625 122.394531 C 57.917969 122.007812 57.828125 121.621094 57.679688 121.265625 L 50.066406 105.488281 C 50.511719 105.546875 50.957031 105.636719 51.375 105.722656 C 51.820312 105.8125 52.238281 105.933594 52.683594 106.050781 C 53.097656 106.171875 53.546875 106.320312 53.960938 106.46875 C 54.378906 106.617188 54.796875 106.765625 55.210938 106.941406 C 55.628906 107.121094 56.015625 107.300781 56.429688 107.507812 C 56.816406 107.714844 57.234375 107.921875 57.621094 108.132812 C 58.007812 108.339844 58.394531 108.578125 58.75 108.816406 C 59.136719 109.050781 59.496094 109.320312 59.851562 109.585938 C 60.210938 109.855469 60.566406 110.121094 60.894531 110.417969 C 61.25 110.714844 61.578125 111.015625 61.90625 111.3125 C 62.230469 111.609375 62.558594 111.933594 62.855469 112.261719 C 63.152344 112.589844 63.453125 112.914062 63.75 113.273438 C 64.046875 113.628906 64.3125 113.957031 64.582031 114.3125 C 64.851562 114.667969 65.117188 115.023438 65.355469 115.410156 C 65.59375 115.796875 65.832031 116.152344 66.039062 116.539062 C 66.246094 116.925781 66.457031 117.3125 66.664062 117.730469 C 66.871094 118.117188 67.050781 118.53125 67.230469 118.949219 C 67.40625 119.363281 67.558594 119.777344 67.707031 120.195312 C 67.855469 120.609375 68.003906 121.027344 68.121094 121.472656 C 68.242188 121.890625 68.359375 122.335938 68.449219 122.78125 C 68.539062 123.226562 68.628906 123.640625 68.6875 124.085938 C 68.746094 124.535156 68.804688 124.980469 68.867188 125.425781 C 68.925781 125.871094 68.953125 126.316406 68.953125 126.761719 C 68.984375 127.207031 68.984375 127.652344 68.984375 128.097656 C 68.984375 128.542969 68.953125 128.992188 68.925781 129.4375 C 68.894531 129.882812 68.835938 130.328125 68.777344 130.773438 C 68.71875 131.21875 68.628906 131.664062 68.539062 132.082031 C 68.449219 132.527344 68.359375 132.941406 68.242188 133.386719 C 68.121094 133.832031 68.003906 134.25 67.855469 134.664062 C 67.707031 135.082031 67.558594 135.496094 67.40625 135.914062 C 67.257812 136.328125 67.082031 136.746094 66.871094 137.132812 C 66.664062 137.519531 66.484375 137.90625 66.246094 138.292969 Z M 58.246094 146.253906 C 58.1875 146.105469 58.097656 145.957031 58.007812 145.839844 C 57.917969 145.71875 57.800781 145.570312 57.679688 145.480469 C 57.5625 145.363281 57.414062 145.273438 57.292969 145.183594 C 57.144531 145.09375 56.996094 145.035156 56.847656 144.976562 C 56.699219 144.917969 56.519531 144.886719 56.371094 144.859375 C 56.222656 144.828125 56.042969 144.828125 55.867188 144.828125 C 55.6875 144.828125 55.539062 144.859375 55.390625 144.886719 C 55.242188 144.917969 55.0625 144.976562 54.914062 145.066406 C 54.765625 145.125 54.617188 145.214844 54.496094 145.332031 C 54.378906 145.421875 54.257812 145.542969 54.140625 145.660156 C 54.023438 145.777344 53.933594 145.925781 53.84375 146.046875 C 53.753906 146.164062 53.695312 146.34375 53.636719 146.492188 C 53.574219 146.640625 53.546875 146.820312 53.515625 146.96875 C 53.484375 147.117188 53.484375 147.292969 53.484375 147.472656 C 53.484375 147.652344 53.515625 147.800781 53.574219 147.949219 C 53.605469 148.097656 53.664062 148.273438 53.753906 148.394531 L 75.558594 193.527344 C 75.617188 193.679688 75.707031 193.828125 75.796875 193.945312 C 75.886719 194.0625 76.003906 194.210938 76.125 194.300781 C 76.242188 194.421875 76.390625 194.511719 76.511719 194.597656 C 76.660156 194.6875 76.808594 194.746094 76.957031 194.808594 C 77.105469 194.867188 77.285156 194.894531 77.433594 194.925781 C 77.582031 194.957031 77.761719 194.957031 77.9375 194.957031 C 78.117188 194.957031 78.265625 194.925781 78.414062 194.894531 C 78.5625 194.867188 78.742188 194.808594 78.890625 194.71875 C 79.039062 194.660156 79.1875 194.570312 79.308594 194.449219 C 79.425781 194.359375 79.546875 194.242188 79.664062 194.125 C 79.78125 194.003906 79.871094 193.855469 79.960938 193.738281 C 80.050781 193.589844 80.109375 193.441406 80.167969 193.292969 C 80.230469 193.144531 80.257812 192.964844 80.289062 192.816406 C 80.320312 192.667969 80.320312 192.488281 80.320312 192.3125 C 80.320312 192.132812 80.289062 191.984375 80.230469 191.835938 C 80.199219 191.6875 80.140625 191.507812 80.050781 191.390625 Z M 58.246094 146.253906 "/></g><path style=" stroke:none;fill-rule:nonzero;fill:#ffffff;fill-opacity:1;" d="M 64.699219 137.460938 C 65.683594 136.09375 66.515625 134.664062 67.199219 133.121094 C 67.289062 132.914062 67.378906 132.734375 67.4375 132.527344 L 67.644531 131.933594 C 67.792969 131.515625 67.914062 131.128906 68.003906 130.714844 C 68.210938 129.882812 68.332031 129.019531 68.359375 128.160156 C 68.359375 127.742188 68.359375 127.296875 68.300781 126.882812 L 68.242188 126.226562 C 68.210938 126.019531 68.179688 125.8125 68.152344 125.601562 C 68.0625 125.1875 67.972656 124.769531 67.855469 124.355469 L 67.675781 123.730469 C 67.617188 123.523438 67.527344 123.34375 67.46875 123.136719 C 66.871094 121.5625 66.097656 120.078125 65.148438 118.679688 C 65.652344 120.285156 66.21875 121.828125 66.632812 123.40625 C 66.753906 123.789062 66.84375 124.175781 66.933594 124.59375 C 67.019531 124.980469 67.109375 125.367188 67.140625 125.78125 C 67.230469 126.167969 67.230469 126.582031 67.257812 126.96875 C 67.289062 127.355469 67.257812 127.773438 67.289062 128.160156 C 67.230469 129.761719 66.933594 131.339844 66.425781 132.851562 C 65.890625 134.367188 65.296875 135.882812 64.699219 137.460938 Z M 64.699219 137.460938 "/><path style=" stroke:none;fill-rule:nonzero;fill:#ffffff;fill-opacity:1;" d="M 90.96875 191.835938 C 89.035156 191.390625 87.28125 190.527344 85.761719 189.25 C 85.019531 188.625 84.394531 187.914062 83.828125 187.109375 C 83.292969 186.308594 82.90625 185.445312 82.640625 184.527344 L 82.640625 184.464844 C 81.953125 182.980469 81.269531 181.496094 80.585938 180.007812 C 79.902344 178.523438 79.1875 177.039062 78.472656 175.582031 C 77.074219 172.640625 75.617188 169.699219 74.191406 166.726562 L 71.960938 162.328125 L 69.726562 157.960938 C 68.242188 155.050781 66.722656 152.136719 65.148438 149.285156 C 66.425781 152.316406 67.765625 155.289062 69.105469 158.289062 L 71.15625 162.746094 L 73.238281 167.203125 C 74.667969 170.144531 76.066406 173.117188 77.523438 176.058594 C 78.234375 177.542969 78.949219 179 79.695312 180.457031 C 80.4375 181.910156 81.152344 183.367188 81.894531 184.851562 L 81.867188 184.792969 C 82.191406 185.773438 82.667969 186.695312 83.292969 187.496094 C 83.886719 188.300781 84.601562 189.011719 85.433594 189.636719 C 86.238281 190.230469 87.128906 190.734375 88.054688 191.09375 C 88.976562 191.449219 89.957031 191.6875 90.96875 191.835938 Z M 90.96875 191.835938 "/><path style=" stroke:none;fill-rule:nonzero;fill:#ffffff;fill-opacity:1;" d="M 27.875 136.628906 C 28.972656 139.125 30.519531 141.320312 32.515625 143.195312 C 34.535156 145.066406 36.828125 146.492188 39.414062 147.472656 C 40.070312 147.710938 40.695312 147.917969 41.378906 148.097656 C 42.035156 148.273438 42.746094 148.394531 43.34375 148.542969 C 44.589844 148.871094 45.78125 149.34375 46.910156 150 C 49.171875 151.394531 50.988281 153.207031 52.414062 155.464844 L 52.386719 155.40625 C 53.8125 158.347656 55.242188 161.320312 56.667969 164.261719 C 58.097656 167.203125 59.554688 170.144531 61.011719 173.085938 C 62.46875 176.027344 63.925781 178.941406 65.445312 181.851562 L 67.707031 186.21875 C 68.449219 187.675781 69.222656 189.132812 69.964844 190.585938 C 69.3125 189.070312 68.65625 187.585938 67.972656 186.101562 L 65.949219 181.613281 C 64.582031 178.640625 63.214844 175.671875 61.816406 172.699219 C 60.417969 169.726562 59.019531 166.785156 57.621094 163.816406 C 56.222656 160.84375 54.796875 157.902344 53.335938 154.960938 L 53.335938 154.902344 C 52.59375 153.742188 51.703125 152.671875 50.75 151.691406 C 49.769531 150.710938 48.667969 149.878906 47.449219 149.167969 C 46.226562 148.453125 44.949219 147.976562 43.582031 147.652344 C 42.894531 147.503906 42.269531 147.414062 41.617188 147.265625 C 40.960938 147.117188 40.335938 146.9375 39.714844 146.730469 C 38.464844 146.285156 37.242188 145.75 36.082031 145.09375 C 34.921875 144.441406 33.851562 143.667969 32.839844 142.808594 C 31.828125 141.945312 30.90625 140.996094 30.074219 139.953125 C 29.242188 138.914062 28.527344 137.816406 27.902344 136.628906 Z M 27.875 136.628906 "/></g></svg>