<svg data-v-7edb40ce="" version="1.1" xmlns="http://www.w3.org/2000/svg" xmlns:xlink="http://www.w3.org/1999/xlink" viewBox="0 0 172 172" class=""><g data-v-7edb40ce="" fill="none" fill-rule="nonzero" stroke="none" stroke-width="1" stroke-linecap="butt" stroke-linejoin="miter" stroke-miterlimit="10" stroke-dasharray="" stroke-dashoffset="0" font-family="none" font-weight="none" font-size="none" text-anchor="none" style="mix-blend-mode: normal;"><path data-v-7edb40ce="" d="M0,172v-172h172v172z" fill="none"></path><g data-v-7edb40ce="" id="original-icon" fill="#000000"><path data-v-7edb40ce="" d="M17.2,13.76c-1.89888,0 -3.44,1.37987 -3.44,3.27875v137.76125c0,1.89888 1.54112,3.44 3.44,3.44h44.72v-6.88h-41.28v-130.88125h130.72v79.28125h6.88v-82.72125c0,-1.89888 -1.54112,-3.27875 -3.44,-3.27875zM68.8,30.96c-5.6587,0 -10.32,4.6613 -10.32,10.32c0.00017,0.91558 0.36529,1.79332 1.01453,2.4389c1.21375,4.34811 4.5939,7.8811 9.30547,7.8811h34.4c4.71157,0 8.09172,-3.53299 9.30547,-7.8811c0.64924,-0.64558 1.01436,-1.52333 1.01453,-2.4389c0,-5.6587 -4.6613,-10.32 -10.32,-10.32zM68.8,37.84h34.4c1.9437,0 3.44,1.4963 3.44,3.44c0,1.9437 -1.4963,3.44 -3.44,3.44h-34.4c-1.9437,0 -3.44,-1.4963 -3.44,-3.44c0,-1.9437 1.4963,-3.44 3.44,-3.44zM68.8,106.64v3.44v18.79906v20.88187v22.23906h24.08h55.04h24.08v-22.23906v-20.88187v-22.23906h-24.08h-55.04zM75.68,113.52h6.6314c-0.63399,1.23313 -1.11799,2.40773 -1.49156,3.30563c-0.43737,1.05122 -0.90533,1.73222 -0.72563,1.54531c0.17723,-0.18407 -0.41667,0.26457 -1.37062,0.66516c-0.81107,0.34058 -1.92026,0.77967 -3.0436,1.27656zM92.88,113.52h55.04c2.63705,0 3.22906,0.89937 4.25969,2.74125c0.51532,0.92094 0.96289,2.046 1.44453,3.20485c0.48164,1.15884 0.8667,2.3665 2.11641,3.66844v0.00672h0.00672c1.24561,1.29167 2.47753,1.7403 3.66172,2.23735c1.18419,0.49704 2.35637,0.9294 3.32578,1.38406c0.96941,0.45466 1.693,0.93913 2.02234,1.28328c0.32918,0.34399 0.36281,0.38158 0.36281,0.83313v20.88187c0,0.45298 -0.03371,0.48898 -0.36281,0.83313c-0.32924,0.34415 -1.05293,0.82862 -2.02234,1.28328c-0.96941,0.45466 -2.1412,0.88662 -3.32578,1.38406c-1.18458,0.49745 -2.41633,0.95062 -3.66172,2.24406h-0.00672c-1.25148,1.30178 -1.63469,2.50991 -2.11641,3.66844c-0.48172,1.15853 -0.92921,2.28406 -1.44453,3.20485c-1.03048,1.84156 -1.62263,2.74125 -4.25969,2.74125h-55.04c-2.63705,0 -3.22851,-0.89932 -4.25969,-2.74125c-0.51559,-0.92096 -0.96888,-2.04596 -1.45125,-3.20485c-0.48237,-1.15888 -0.86336,-2.36712 -2.11641,-3.66844c-1.24511,-1.29524 -2.47743,-1.74651 -3.66172,-2.24406c-1.18429,-0.49755 -2.35653,-0.9294 -3.32578,-1.38406c-0.96924,-0.45467 -1.69309,-0.93911 -2.02234,-1.28328c-0.32925,-0.34417 -0.36281,-0.38015 -0.36281,-0.83313v-20.88187c0,-0.22577 0.01095,-0.34806 0.06047,-0.45688c0.04952,-0.10881 0.13762,-0.20416 0.30235,-0.37625c0.32935,-0.34417 1.0531,-0.82861 2.02234,-1.28328c0.96925,-0.45466 2.14188,-0.88691 3.32578,-1.38406c1.1839,-0.49715 2.41638,-0.94387 3.66172,-2.23735c1.25126,-1.30147 1.63411,-2.51596 2.11641,-3.67515c0.48229,-1.1592 0.93566,-2.28372 1.45125,-3.20485c1.03117,-1.84225 1.62263,-2.74125 4.25969,-2.74125zM158.4886,113.52h6.6314v6.79265c-1.12512,-0.49707 -2.23844,-0.93579 -3.05031,-1.27656c-0.949,-0.39833 -1.52964,-0.83894 -1.3639,-0.66516l-0.00672,-0.00672c0.17217,0.17737 -0.28414,-0.49253 -0.71891,-1.53859c-0.37331,-0.89819 -0.85757,-2.07249 -1.49156,-3.30563zM120.4,120.4c-9.69094,0 -17.2,8.71808 -17.2,18.92c0,10.20192 7.50906,18.92 17.2,18.92c9.69094,0 17.2,-8.71808 17.2,-18.92c0,-10.20192 -7.50906,-18.92 -17.2,-18.92zM120.4,127.28c5.50794,0 10.32,5.14318 10.32,12.04c0,6.89682 -4.81206,12.04 -10.32,12.04c-5.50794,0 -10.32,-5.14318 -10.32,-12.04c0,-6.89682 4.81206,-12.04 10.32,-12.04zM91.16,134.16c-2.84979,0 -5.16,2.31021 -5.16,5.16c0,2.84979 2.31021,5.16 5.16,5.16c2.84979,0 5.16,-2.31021 5.16,-5.16c0,-2.84979 -2.31021,-5.16 -5.16,-5.16zM149.64,134.16c-2.84979,0 -5.16,2.31021 -5.16,5.16c0,2.84979 2.31021,5.16 5.16,5.16c2.84979,0 5.16,-2.31021 5.16,-5.16c0,-2.84979 -2.31021,-5.16 -5.16,-5.16zM75.68,158.32735c1.12341,0.49688 2.23285,0.93595 3.0436,1.27656c0.95356,0.40062 1.54762,0.856 1.37062,0.67188c-0.18149,-0.18848 0.28834,0.48803 0.72563,1.53859c0.3735,0.89733 0.85755,2.07248 1.49156,3.30563h-6.6314zM165.12,158.32735v6.79265h-6.6314c0.634,-1.23315 1.11833,-2.40799 1.49156,-3.30563c0.43698,-1.05091 0.90727,-1.72753 0.72563,-1.53859c-0.1688,0.17661 0.41344,-0.27276 1.3639,-0.67188c0.81154,-0.34079 1.92512,-0.77949 3.05031,-1.27656z"></path></g></g></svg>