<svg xmlns="http://www.w3.org/2000/svg" width="23.184" height="24.398" viewBox="0 0 23.184 24.398" data-v-9b403bea="" class=""><g id="iconfinder_facebook_group_3005357" transform="translate(-18.8 -6.7)" data-v-9b403bea=""><g id="Background_Bottom" transform="translate(18.8 7.914)" data-v-9b403bea=""><g id="Group_3" data-name="Group 3" data-v-9b403bea=""><path id="Path_14" data-name="Path 14" d="M41.984,51.653a3.03,3.03,0,0,1-3.031,3.031H21.831A3.03,3.03,0,0,1,18.8,51.653V34.531A3.03,3.03,0,0,1,21.831,31.5H38.953a3.03,3.03,0,0,1,3.031,3.031V51.653Z" transform="translate(-18.8 -31.5)" fill="#223556" data-v-9b403bea=""></path></g></g><g id="Background" transform="translate(18.8 6.7)" data-v-9b403bea=""><path id="Path_15" data-name="Path 15" d="M41.984,26.858a3.03,3.03,0,0,1-3.031,3.031H21.831A3.03,3.03,0,0,1,18.8,26.858V9.731A3.03,3.03,0,0,1,21.831,6.7H38.953a3.03,3.03,0,0,1,3.031,3.031V26.858Z" transform="translate(-18.8 -6.7)" fill="#3b5998" data-v-9b403bea=""></path></g><g id="Shadow" transform="translate(20.017 14.02)" data-v-9b403bea=""><path id="Path_16" data-name="Path 16" d="M61.874,156.934h0a2.438,2.438,0,0,0-3.516,3.378h0l1.214,1.214a2.437,2.437,0,0,1-.734-.308l-.769-.769h0c-.1.059-.206.117-.308.181l-1.954-1.954a2.436,2.436,0,0,0-3.927.524l-2.174-2.174h0a2.438,2.438,0,1,0-3.589,3.3h0l1.2,1.2a2.449,2.449,0,0,1-.779-.333l-.71-.71v0a4.3,4.3,0,0,0-2.149,4.27h0l7.315,7.315H62.584a3.031,3.031,0,0,0,3.026-2.908h0V160.67Z" transform="translate(-43.647 -156.2)" fill="#231f20" opacity="0.45" data-v-9b403bea=""></path></g><g id="Symbol" transform="translate(20.021 14.02)" data-v-9b403bea=""><circle id="Ellipse_2" data-name="Ellipse 2" cx="2.438" cy="2.438" r="2.438" transform="translate(7.949 1.709)" fill="#fff" data-v-9b403bea=""></circle><path id="Path_17" data-name="Path 17" d="M176.289,283.3a4.3,4.3,0,0,0-2.149-4.27,2.434,2.434,0,0,1-4.108-.034,4.308,4.308,0,0,0-2.208,3.119,4.194,4.194,0,0,0-.024,1.185Z" transform="translate(-161.695 -272.987)" fill="#fff" data-v-9b403bea=""></path><path id="Path_18" data-name="Path 18" d="M309.022,242.934a2.434,2.434,0,0,1-4.108-.034,4.308,4.308,0,0,0-1.714,1.689,4.308,4.308,0,0,1,1.959,2.62h6.013A4.308,4.308,0,0,0,309.022,242.934Z" transform="translate(-290.496 -238.655)" fill="#fff" data-v-9b403bea=""></path><circle id="Ellipse_3" data-name="Ellipse 3" cx="2.438" cy="2.438" r="2.438" transform="translate(1.79)" fill="#fff" data-v-9b403bea=""></circle><path id="Path_19" data-name="Path 19" d="M45.929,242.934a2.434,2.434,0,0,0,4.108-.034,4.308,4.308,0,0,1,1.714,1.689,4.309,4.309,0,0,0-1.959,2.62H43.779A4.308,4.308,0,0,1,45.929,242.934Z" transform="translate(-43.747 -238.655)" fill="#fff" data-v-9b403bea=""></path><circle id="Ellipse_4" data-name="Ellipse 4" cx="2.438" cy="2.438" r="2.438" transform="translate(14.04)" fill="#fff" data-v-9b403bea=""></circle></g></g></svg>