<svg data-v-56f6025a="" version="1.1" xmlns="http://www.w3.org/2000/svg" xmlns:xlink="http://www.w3.org/1999/xlink" viewBox="0 0 172 172" class=""><g data-v-56f6025a="" fill="none" fill-rule="nonzero" stroke="none" stroke-width="1" stroke-linecap="butt" stroke-linejoin="miter" stroke-miterlimit="10" stroke-dasharray="" stroke-dashoffset="0" font-family="none" font-weight="none" font-size="none" text-anchor="none" style="mix-blend-mode: normal;"><path data-v-56f6025a="" d="M0,172v-172h172v172z" fill="none"></path><g data-v-56f6025a="" fill="#000000"><path data-v-56f6025a="" d="M37.84,37.84c-20.855,0 -37.84,16.985 -37.84,37.84c0,8.07594 2.56656,15.54719 6.88,21.70156v47.11187c0,5.71094 4.60906,10.30656 10.32,10.30656h7.2025c1.63938,9.72875 10.13188,17.2 20.3175,17.2c10.18563,0 18.67813,-7.47125 20.3175,-17.2h31.82c2.55313,0 4.87781,-1.03469 6.62469,-2.66062c1.76031,1.55875 4.00438,2.63375 6.57094,2.66062h3.78937c1.63938,9.72875 10.13188,17.2 20.3175,17.2c11.35469,0 20.64,-9.28531 20.64,-20.64c0,-11.35469 -9.28531,-20.64 -20.64,-20.64c-10.18562,0 -18.67812,7.47125 -20.3175,17.2h-3.73562c-0.645,0 -1.6125,-0.40312 -2.33813,-1.12875c-0.73906,-0.73906 -1.12875,-1.67969 -1.12875,-2.31125v-65.36c0,-1.29 2.15,-3.44 3.44,-3.44h27.52c2.72781,0 6.61125,2.98313 9.245,6.14094l0.5375,0.73906h-16.6625c-5.4825,0 -10.32,4.43438 -10.32,10.32v13.76c0,2.86219 1.33031,5.33469 3.15781,7.16219c1.8275,1.8275 4.3,3.15781 7.16219,3.15781h34.4v27.52c0,1.29 -2.15,3.44 -3.44,3.44h-6.88v6.88h6.88c5.71094,0 10.32,-4.60906 10.32,-10.32v-33.06969c0,-7.87438 -5.49594,-14.835 -5.49594,-14.835l-0.04031,-0.04031l-14.25719,-19.01406l-0.05375,-0.06719c-3.17125,-3.82969 -7.96844,-8.65375 -14.55281,-8.65375h-27.52c-1.22281,0 -2.365,0.24188 -3.44,0.63156v-7.83406c0,-5.28094 -4.16562,-9.9975 -9.675,-9.9975h-29.95219c-6.96063,-8.39844 -17.45531,-13.76 -29.17281,-13.76zM37.84,44.72c17.13281,0 30.96,13.82719 30.96,30.96c0,17.13281 -13.82719,30.96 -30.96,30.96c-17.13281,0 -30.96,-13.82719 -30.96,-30.96c0,-17.13281 13.82719,-30.96 30.96,-30.96zM37.78625,48.10625c-1.89469,0.04031 -3.41312,1.59906 -3.38625,3.49375v19.8875c-1.26312,1.03469 -1.98875,2.56656 -1.98875,4.1925c0,0.17469 0.01344,0.34938 0.02688,0.5375l-7.35031,7.35031c-0.90031,0.86 -1.26313,2.15 -0.94063,3.34594c0.30906,1.20938 1.24969,2.15 2.45906,2.45906c1.19594,0.3225 2.48594,-0.04031 3.34594,-0.94063l7.35031,-7.35031c0.17469,0.01344 0.36281,0.02687 0.5375,0.02687c2.99656,0 5.42875,-2.43219 5.42875,-5.42875c0,-1.62594 -0.72562,-3.15781 -1.98875,-4.1925v-19.8875c0.01344,-0.92719 -0.34937,-1.8275 -1.00781,-2.48594c-0.65844,-0.65844 -1.55875,-1.02125 -2.48594,-1.00781zM71.50094,58.48h25.46406c1.47813,0 2.795,1.42438 2.795,3.1175v17.45531c0,0.02687 0,0.04031 0,0.06719v65.36c0,0.02688 0,0.04031 0,0.05375v0.48375c0,1.62594 -1.27656,2.9025 -2.9025,2.9025h-31.82c-1.63937,-9.72875 -10.13187,-17.2 -20.3175,-17.2c-10.18562,0 -18.67812,7.47125 -20.3175,17.2h-7.2025c-1.29,0 -3.44,-2.15 -3.44,-3.42656v-39.6675c6.54406,5.42875 14.9425,8.69406 24.08,8.69406c20.855,0 37.84,-16.985 37.84,-37.84c0,-6.19469 -1.51844,-12.04 -4.17906,-17.2zM130.72,89.44h21.8225l8.35813,11.13969c0.01344,0.02688 3.15781,5.38844 3.81625,9.50031h-33.99688c-0.57781,0 -1.54531,-0.38969 -2.29781,-1.14219c-0.7525,-0.7525 -1.14219,-1.72 -1.14219,-2.29781v-13.76c0,-1.73344 2.0425,-3.44 3.44,-3.44zM44.72,137.6c7.64594,0 13.76,6.11406 13.76,13.76c0,7.64594 -6.11406,13.76 -13.76,13.76c-7.64594,0 -13.76,-6.11406 -13.76,-13.76c0,-7.64594 6.11406,-13.76 13.76,-13.76zM134.16,137.6c7.64594,0 13.76,6.11406 13.76,13.76c0,7.64594 -6.11406,13.76 -13.76,13.76c-7.64594,0 -13.76,-6.11406 -13.76,-13.76c0,-7.64594 6.11406,-13.76 13.76,-13.76z"></path></g></g></svg>