<svg data-v-56f6025a="" fill="#111" version="1.1" xmlns="http://www.w3.org/2000/svg" xmlns:xlink="http://www.w3.org/1999/xlink" viewBox="0 0 172 172" class=""><g data-v-56f6025a="" fill="none" fill-rule="nonzero" stroke="none" stroke-width="1" stroke-linecap="butt" stroke-linejoin="miter" stroke-miterlimit="10" stroke-dasharray="" stroke-dashoffset="0" font-family="none" font-weight="none" font-size="none" text-anchor="none" style="mix-blend-mode: normal;"><path data-v-56f6025a="" d="M0,172v-172h172v172z" fill="none"></path><g data-v-56f6025a="" fill="#000000"><path data-v-56f6025a="" d="M9.7825,44.72c-5.36156,0 -9.7825,4.42094 -9.7825,9.7825v89.9775c0,5.71094 4.60906,10.32 10.32,10.32h14.0825c1.63938,9.75563 10.11844,17.2 20.3175,17.2c10.19906,0 18.67813,-7.44437 20.3175,-17.2h31.82c2.53969,0 4.81063,-1.075 6.5575,-2.6875c1.78719,1.57219 4.07156,2.66063 6.665,2.6875h3.7625c1.63938,9.75563 10.11844,17.2 20.3175,17.2c11.35469,0 20.64,-9.28531 20.64,-20.64c0,-11.35469 -9.28531,-20.64 -20.64,-20.64c-10.19906,0 -18.67812,7.44438 -20.3175,17.2h-3.7625c-0.645,0 -1.62594,-0.44344 -2.365,-1.1825c-0.73906,-0.73906 -1.075,-1.62594 -1.075,-2.2575v-65.36c0,-1.29 2.15,-3.44 3.44,-3.44h27.52c2.70094,0 6.50375,2.88906 9.1375,6.02c0.02688,0.04031 0.08063,0.06719 0.1075,0.1075l0.5375,0.7525h-16.6625c-5.4825,0 -10.32,4.43438 -10.32,10.32v13.76c0,2.86219 1.29,5.375 3.1175,7.2025c1.8275,1.8275 4.34031,3.1175 7.2025,3.1175h34.4v27.52c0,1.29 -2.15,3.44 -3.44,3.44h-6.88v6.88h6.88c5.71094,0 10.32,-4.60906 10.32,-10.32v-33.11c0,-7.87437 -5.4825,-14.835 -5.4825,-14.835h-0.1075l-14.19,-18.92v-0.1075l-0.1075,-0.1075c-3.17125,-3.82969 -7.92812,-8.6 -14.5125,-8.6h-27.52c-1.22281,0 -2.35156,0.25531 -3.44,0.645v-14.7275c0,-5.28094 -4.16562,-9.9975 -9.675,-9.9975zM9.7825,51.6h87.1825c1.47813,0 2.795,1.42438 2.795,3.1175v90.3c0,1.6125 -1.27656,2.9025 -2.9025,2.9025h-31.82c-1.63937,-9.75562 -10.11844,-17.2 -20.3175,-17.2c-10.19906,0 -18.67812,7.44438 -20.3175,17.2h-14.0825c-1.29,0 -3.44,-2.16344 -3.44,-3.44v-89.9775c0,-1.6125 1.26313,-2.9025 2.9025,-2.9025zM130.72,89.44h21.8225l8.385,11.18c0,0 3.1175,5.33469 3.7625,9.46h-33.97c-0.57781,0 -1.505,-0.43 -2.2575,-1.1825c-0.7525,-0.7525 -1.1825,-1.67969 -1.1825,-2.2575v-13.76c0,-1.73344 2.0425,-3.44 3.44,-3.44zM44.72,137.6c7.64594,0 13.76,6.11406 13.76,13.76c0,7.64594 -6.11406,13.76 -13.76,13.76c-7.64594,0 -13.76,-6.11406 -13.76,-13.76c0,-7.64594 6.11406,-13.76 13.76,-13.76zM134.16,137.6c7.64594,0 13.76,6.11406 13.76,13.76c0,7.64594 -6.11406,13.76 -13.76,13.76c-7.64594,0 -13.76,-6.11406 -13.76,-13.76c0,-7.64594 6.11406,-13.76 13.76,-13.76z"></path></g></g></svg>