<svg xmlns="http://www.w3.org/2000/svg" width="23.184" height="16.405" viewBox="0 0 23.184 16.405" data-v-9b403bea="" class=""><path id="youtube" d="M18.369,67.393H4.815A4.815,4.815,0,0,0,0,72.208v6.776A4.815,4.815,0,0,0,4.815,83.8H18.369a4.815,4.815,0,0,0,4.815-4.815V72.208A4.815,4.815,0,0,0,18.369,67.393Zm-3.256,8.532-6.34,3.024a.254.254,0,0,1-.364-.23V72.483a.254.254,0,0,1,.37-.227l6.34,3.213A.254.254,0,0,1,15.113,75.925Z" transform="translate(0 -67.393)" fill="#f61c0d" data-v-9b403bea=""></path></svg>